STARTFONT 2.1
COMMENT
COMMENT Converted from OpenType font "Q:\font stuff\winfont\Wytherness.ttf" by "otf2bdf 3.0".
COMMENT
FONT -FreeType-Wytherness-Medium-R-Normal--96-960-72-72-P-231-ISO10646-1
SIZE 96 72 72
FONTBOUNDINGBOX 96 97 -2 -20
STARTPROPERTIES 19
FOUNDRY "FreeType"
FAMILY_NAME "Wytherness"
WEIGHT_NAME "Medium"
SLANT "R"
SETWIDTH_NAME "Normal"
ADD_STYLE_NAME ""
PIXEL_SIZE 96
POINT_SIZE 960
RESOLUTION_X 72
RESOLUTION_Y 72
SPACING "P"
AVERAGE_WIDTH 231
CHARSET_REGISTRY "ISO10646"
CHARSET_ENCODING "1"
FONT_ASCENT 76
FONT_DESCENT 19
COPYRIGHT "Copyright (c) Graham Meade, 2003. All rights reserved."
_OTF_FONTFILE "Q:\font stuff\winfont\Wytherness.ttf"
_OTF_PSNAME "Wytherness"
ENDPROPERTIES
CHARS 219
STARTCHAR 0020
ENCODING 32
SWIDTH 281 0
DWIDTH 27 0
BBX 0 0 0 0
BITMAP
ENDCHAR
STARTCHAR 0021
ENCODING 33
SWIDTH 145 0
DWIDTH 14 0
BBX 3 62 5 0
BITMAP
E0
E0
E0
E0
E0
E0
E0
E0
E0
E0
E0
E0
E0
E0
E0
E0
E0
E0
E0
E0
E0
E0
E0
E0
E0
E0
E0
E0
E0
E0
E0
E0
E0
E0
E0
E0
E0
E0
E0
E0
E0
E0
E0
E0
E0
E0
00
00
00
00
00
00
00
00
00
00
E0
E0
E0
E0
E0
E0
ENDCHAR
STARTCHAR 0022
ENCODING 34
SWIDTH 239 0
DWIDTH 23 0
BBX 13 13 5 49
BITMAP
E038
E038
E038
E038
E038
E038
E038
E038
E038
E038
E038
E038
E038
ENDCHAR
STARTCHAR 0023
ENCODING 35
SWIDTH 427 0
DWIDTH 41 0
BBX 31 30 5 13
BITMAP
00700380
00700380
00F00780
00E00700
00E00700
00E00700
00E00700
7FFFFFFE
7FFFFFFE
7FFFFFFC
00E00700
00E00700
00E00700
01E00700
01E00700
01E00700
01C00700
01C00E00
01C00E00
01C00E00
FFFFFFFC
FFFFFFFC
FFFFFFF8
01C00E00
01C00E00
01C00E00
03800E00
03800E00
03801C00
03801C00
ENDCHAR
STARTCHAR 0024
ENCODING 36
SWIDTH 343 0
DWIDTH 33 0
BBX 23 62 5 0
BITMAP
003800
003800
003800
007C00
03FF80
07FFE0
1FFFF0
3E38F8
7C383C
F0381E
E03800
E03800
E03800
E03800
E03800
E03800
E03800
E03800
E03800
E03800
E03800
E03800
F03800
783800
3E3800
1FB800
0FFE00
03FF80
00FFE0
003BF0
0038F8
00383C
00381E
00380E
00380E
00380E
00380E
00380E
00380E
00380E
00380E
00380E
00380E
00380E
00380E
00380E
00380E
00380E
00380E
00380E
00380E
30380E
F8381E
7C387C
3F38F8
1FFFF0
07FFE0
01FF80
007C00
003800
003800
003800
ENDCHAR
STARTCHAR 0025
ENCODING 37
SWIDTH 614 0
DWIDTH 59 0
BBX 49 62 5 1
BITMAP
03E00000700000
0FF00000700000
1FFC0000E00000
3E3C0000E00000
3C1E0000E00000
780F0001C00000
F0070001C00000
E0070001C00000
E0070003800000
E0070003800000
E0070003800000
E0070007000000
E0070007000000
E0070007000000
E007000F000000
E007000E000000
E007000E000000
E007001E000000
E007001C000000
E007001C000000
E007003C000000
E0070038000000
E0070038000000
E0070078000000
E0070070000000
E0070070000000
700F00F0000000
780E00E0000000
381C00E0000000
1E3C01E0000000
1FF801C003F000
0FF001C007FC00
03C001C00FFC00
000003801F1E00
000003803C0F00
00000380780780
00000700780380
00000700700380
00000700700380
00000E00700380
00000E00700380
00000E00700380
00001C00700380
00001C00700380
00001C00700380
00003C00700380
00003800700380
00003800700380
00007800700380
00007000700380
00007000700380
0000F000700380
0000E000700380
0000E000700380
0001E000700380
0001C000780380
0001C000380700
0003C0001C0F00
000380000F1E00
000380000FFC00
0007800007F800
0007000001F000
ENDCHAR
STARTCHAR 0026
ENCODING 38
SWIDTH 343 0
DWIDTH 33 0
BBX 23 65 5 -3
BITMAP
00FE00
03FFC0
0FFFE0
1F81F0
3E007C
78003E
F0001E
E0000E
E0000E
E0000E
E0000E
E0000E
E0000E
E0000E
E0000E
E0000E
E0000E
E0000E
E0000E
F0000E
78003E
3E007C
1F81F8
0FFFF0
03FFC0
07FF00
1FE000
3E0000
7C0000
F00000
E00000
E00000
E00000
E00E00
E00FC0
E00FE0
E001F0
E00078
E0003C
E0001E
E0000E
E0000E
E0000E
E0000E
E0000E
E0000E
E0000E
E0000E
E0000E
E0000E
E0000E
E0000E
E0000E
E0000E
E0000E
F0001E
7C003E
3E00FE
1FC3FE
0FFFFE
03FFCE
00FE0E
00000E
00000E
00000E
ENDCHAR
STARTCHAR 0027
ENCODING 39
SWIDTH 145 0
DWIDTH 14 0
BBX 3 13 5 49
BITMAP
E0
E0
E0
E0
E0
E0
E0
E0
E0
E0
E0
E0
E0
ENDCHAR
STARTCHAR 0028
ENCODING 40
SWIDTH 229 0
DWIDTH 22 0
BBX 12 82 5 -10
BITMAP
00F0
03F0
0FF0
1F80
3E00
7800
F000
E000
E000
E000
E000
E000
E000
E000
E000
E000
E000
E000
E000
E000
E000
E000
E000
E000
E000
E000
E000
E000
E000
E000
E000
E000
E000
E000
E000
E000
E000
E000
E000
E000
E000
E000
E000
E000
E000
E000
E000
E000
E000
E000
E000
E000
E000
E000
E000
E000
E000
E000
E000
E000
E000
E000
E000
E000
E000
E000
E000
E000
E000
E000
E000
E000
E000
E000
E000
F000
7800
3E00
1F80
0FF0
03F0
00F0
ENDCHAR
STARTCHAR 0029
ENCODING 41
SWIDTH 229 0
DWIDTH 22 0
BBX 12 82 5 -10
BITMAP
F000
FC00
FF00
1F80
03C0
01E0
00F0
0070
0070
0070
0070
0070
0070
0070
0070
0070
0070
0070
0070
0070
0070
0070
0070
0070
0070
0070
0070
0070
0070
0070
0070
0070
0070
0070
0070
0070
0070
0070
0070
0070
0070
0070
0070
0070
0070
0070
0070
0070
0070
0070
0070
0070
0070
0070
0070
0070
0070
0070
0070
0070
0070
0070
0070
0070
0070
0070
0070
0070
0070
0070
0070
0070
0070
0070
0070
00F0
01E0
03C0
1F80
FF00
FC00
F000
ENDCHAR
STARTCHAR 002A
ENCODING 42
SWIDTH 333 0
DWIDTH 32 0
BBX 22 23 5 39
BITMAP
007000
007000
007000
007000
007000
707038
FC70FC
7E71F8
1FF7E0
07FF80
03FF00
00FC00
03FF00
0FFFC0
3FF7E0
7E71F8
787078
607018
007000
007000
007000
007000
007000
ENDCHAR
STARTCHAR 002B
ENCODING 43
SWIDTH 416 0
DWIDTH 40 0
BBX 29 30 5 13
BITMAP
00070000
00070000
00070000
00070000
00070000
00070000
00070000
00070000
00070000
00070000
00070000
00070000
00070000
00070000
FFFFFFF8
FFFFFFF8
FFFFFFF8
00070000
00070000
00070000
00070000
00070000
00070000
00070000
00070000
00070000
00070000
00070000
00070000
00070000
ENDCHAR
STARTCHAR 002C
ENCODING 44
SWIDTH 177 0
DWIDTH 17 0
BBX 6 14 6 -8
BITMAP
1C
38
38
38
38
78
70
70
70
70
E0
E0
E0
E0
ENDCHAR
STARTCHAR 002D
ENCODING 45
SWIDTH 416 0
DWIDTH 40 0
BBX 30 3 5 26
BITMAP
FFFFFFFC
FFFFFFFC
FFFFFFFC
ENDCHAR
STARTCHAR 002E
ENCODING 46
SWIDTH 145 0
DWIDTH 14 0
BBX 3 7 5 0
BITMAP
E0
E0
E0
E0
E0
E0
E0
ENDCHAR
STARTCHAR 002F
ENCODING 47
SWIDTH 343 0
DWIDTH 33 0
BBX 22 62 6 -1
BITMAP
00001C
00001C
000038
000038
000038
000070
000070
000070
0000F0
0000E0
0000E0
0001E0
0001C0
0001C0
0003C0
000380
000380
000780
000700
000700
000700
000E00
000E00
000E00
001C00
001C00
001C00
003C00
003800
003800
007800
007000
007000
00F000
00E000
00E000
01E000
01C000
01C000
01C000
038000
038000
038000
070000
070000
070000
0E0000
0E0000
0E0000
1E0000
1C0000
1C0000
3C0000
380000
380000
780000
700000
700000
F00000
E00000
E00000
E00000
ENDCHAR
STARTCHAR 0030
ENCODING 48
SWIDTH 343 0
DWIDTH 33 0
BBX 23 62 5 0
BITMAP
00FE00
03FFC0
0FFFE0
1F81F0
3E0078
78003C
F0001E
E0000E
E0000E
E0000E
E0000E
E0000E
E0000E
E0000E
E0000E
E0000E
E0000E
E0000E
E0000E
E0000E
E0000E
E0000E
E0000E
E0000E
E0000E
E0000E
E0380E
E0380E
E0380E
E0380E
E0380E
E0380E
E0000E
E0000E
E0000E
E0000E
E0000E
E0000E
E0000E
E0000E
E0000E
E0000E
E0000E
E0000E
E0000E
E0000E
E0000E
E0000E
E0000E
E0000E
E0000E
E0000E
E0000E
E0000E
E0000E
F0001E
78003C
3E0078
1F81F0
0FFFE0
03FF80
00FE00
ENDCHAR
STARTCHAR 0031
ENCODING 49
SWIDTH 343 0
DWIDTH 33 0
BBX 23 62 5 0
BITMAP
003800
003800
003800
003800
003800
003800
003800
003800
003800
003800
003800
003800
003800
003800
003800
003800
003800
003800
003800
003800
003800
003800
003800
003800
003800
003800
003800
003800
003800
003800
003800
003800
003800
003800
003800
003800
003800
003800
003800
003800
003800
003800
003800
003800
003800
003800
003800
003800
003800
003800
003800
003800
003800
003800
103800
F8381E
7C383C
3E38F8
1FFFF0
0FFFE0
03FF80
00FE00
ENDCHAR
STARTCHAR 0032
ENCODING 50
SWIDTH 343 0
DWIDTH 33 0
BBX 23 62 5 0
BITMAP
00FE00
03FFC0
0FFFE0
1F81F0
3E0078
78003C
F0001E
E0000E
E0000E
E0000E
00000E
00000E
00000E
00000E
00000E
00000E
00000E
00000E
00000E
00000E
00000E
00000E
00001E
00003C
00007C
0001F0
00FFE0
03FFC0
0FFE00
1F8000
3E0000
780000
F00000
E00000
E00000
E00000
E00000
E00000
E00000
E00000
E00000
E00000
E00000
E00000
E00000
E00000
E00000
E00000
E00000
E00000
E00000
E00000
E00000
E00000
E00000
F0001E
78003C
3C00F8
1F83F0
0FFFE0
03FF80
00FE00
ENDCHAR
STARTCHAR 0033
ENCODING 51
SWIDTH 343 0
DWIDTH 33 0
BBX 23 62 5 0
BITMAP
00FE00
03FFC0
0FFFE0
1F81F0
3E0078
78003C
F0001E
E0000E
E0000E
E0000E
00000E
00000E
00000E
00000E
00000E
00000E
00000E
00000E
00000E
00000E
00000E
00000E
00001E
00003C
000078
0003F0
001FE0
001F80
001FE0
0003F0
000078
00003C
00001E
00000E
00000E
00000E
00000E
00000E
00000E
00000E
00000E
00000E
00000E
00000E
00000E
00000E
00000E
00000E
00000E
00000E
00000E
E0000E
E0000E
E0000E
E0000E
F0001E
78003C
3E0078
1F81F0
0FFFE0
03FF80
00FE00
ENDCHAR
STARTCHAR 0034
ENCODING 52
SWIDTH 343 0
DWIDTH 33 0
BBX 23 62 5 0
BITMAP
003800
003800
007800
007000
007000
007000
00E000
00E000
00E000
01E000
01C000
01C000
01C000
038000
038000
038000
078700
070700
070700
070700
0F0700
0E0700
0E0700
0E0700
1C0700
1C0700
1C0700
3C0700
380700
380700
380700
700700
700700
700700
700700
E00700
E00700
E00700
E00700
E00700
E00700
E00718
F0073E
78077C
3C07F8
1F87F0
0FFFC0
03FF80
00FF00
000700
000700
000700
000700
000700
000700
000700
000700
000700
000700
000700
000700
000700
ENDCHAR
STARTCHAR 0035
ENCODING 53
SWIDTH 343 0
DWIDTH 33 0
BBX 23 62 5 0
BITMAP
00FE00
03FFC0
0FFFE0
1F83F0
3E0078
78003C
F0001E
E00000
E00000
E00000
E00000
E00000
E00000
E00000
E00000
E00000
E00000
E00000
E00000
E00000
E00000
E00000
E00000
E00000
E00000
E00000
E0FE00
E3FF80
EFFFE0
FF81F0
FE0078
F8003C
F0001E
00000E
00000E
00000E
00000E
00000E
00000E
00000E
00000E
00000E
00000E
00000E
00000E
00000E
00000E
00000E
00000E
00000E
00000E
E0000E
E0000E
E0000E
E0000E
F0001E
78003C
3E0078
1F81F0
0FFFE0
03FF80
00FE00
ENDCHAR
STARTCHAR 0036
ENCODING 54
SWIDTH 343 0
DWIDTH 33 0
BBX 23 62 5 0
BITMAP
00F000
03F000
0FF000
1F8000
3E0000
780000
F00000
E00000
E00000
E00000
E00000
E00000
E00000
E00000
E00000
E00000
E00000
E00000
E00000
E00000
E00000
E00000
E00000
E00000
E00000
E00000
E0FE00
E3FF80
EFFFE0
FFC3F0
FE00F8
F8003C
F0001E
E0000E
E0000E
E0000E
E0000E
E0000E
E0000E
E0000E
E0000E
E0000E
E0000E
E0000E
E0000E
E0000E
E0000E
E0000E
E0000E
E0000E
E0000E
E0000E
E0000E
E0000E
E0000E
F0001E
78003C
3E0078
1F81F0
0FFFE0
03FF80
00FE00
ENDCHAR
STARTCHAR 0037
ENCODING 55
SWIDTH 343 0
DWIDTH 33 0
BBX 23 62 5 -1
BITMAP
00FE00
03FF80
0FFFE0
1F81F0
3E0078
7C003C
F0001E
00000E
00000E
00000E
00000E
00000E
00000E
00000E
00000E
00000E
00001C
00001C
00001C
00001C
00001C
000038
000038
000038
000038
000038
000070
000070
000070
000070
000070
0000E0
0000E0
0000E0
0000E0
0000E0
0001C0
0001C0
0001C0
0001C0
0001C0
000380
000380
000380
000380
000380
000700
000700
000700
000700
000700
000E00
000E00
000E00
000E00
000E00
001C00
001C00
001C00
001C00
001C00
003800
ENDCHAR
STARTCHAR 0038
ENCODING 56
SWIDTH 343 0
DWIDTH 33 0
BBX 23 62 5 0
BITMAP
00FE00
03FFC0
0FFFE0
1F81F0
3E0078
78003C
F0001E
E0000E
E0000E
E0000E
E0000E
E0000E
E0000E
E0000E
E0000E
E0000E
E0000E
E0000E
E0000E
E0000E
E0000E
E0000E
F0001E
78003E
3C007C
1F81F8
0FFFF0
03FFC0
07FFE0
1F81F8
3E007C
78003C
F0001E
E0000E
E0000E
E0000E
E0000E
E0000E
E0000E
E0000E
E0000E
E0000E
E0000E
E0000E
E0000E
E0000E
E0000E
E0000E
E0000E
E0000E
E0000E
E0000E
E0000E
E0000E
E0000E
F0001E
78003C
3E0078
1F81F0
0FFFE0
03FF80
00FE00
ENDCHAR
STARTCHAR 0039
ENCODING 57
SWIDTH 343 0
DWIDTH 33 0
BBX 23 62 5 0
BITMAP
00FE00
03FFC0
0FFFE0
1F81F0
3E0078
78003C
F0001E
E0000E
E0000E
E0000E
E0000E
E0000E
E0000E
E0000E
E0000E
E0000E
E0000E
E0000E
E0000E
E0000E
E0000E
E0000E
E0000E
E0000E
E0000E
E0000E
E0000E
E0000E
E0000E
F0001E
7C003E
3E00FE
1FEFFE
0FFFFE
03FFCE
00FE0E
00000E
00000E
00000E
00000E
00000E
00000E
00000E
00000E
00000E
00000E
00000E
00000E
00000E
00000E
00000E
00000E
00000E
00000E
00000E
00001E
00003C
000078
0001F0
000FE0
000F80
000E00
ENDCHAR
STARTCHAR 003A
ENCODING 58
SWIDTH 145 0
DWIDTH 14 0
BBX 3 33 5 0
BITMAP
E0
E0
E0
E0
E0
E0
00
00
00
00
00
00
00
00
00
00
00
00
00
00
00
00
00
00
00
00
00
E0
E0
E0
E0
E0
E0
ENDCHAR
STARTCHAR 003B
ENCODING 59
SWIDTH 177 0
DWIDTH 17 0
BBX 6 40 6 -8
BITMAP
1C
1C
1C
1C
1C
1C
00
00
00
00
00
00
00
00
00
00
00
00
00
00
00
00
00
00
00
00
1C
1C
1C
3C
38
38
38
38
70
70
70
70
F0
E0
ENDCHAR
STARTCHAR 003C
ENCODING 60
SWIDTH 416 0
DWIDTH 40 0
BBX 30 22 5 17
BITMAP
0000000C
0000007C
000003FC
00001FF8
0000FFC0
0007FE00
007FE000
03FF0000
1FF80000
FFC00000
FE000000
FC000000
FFC00000
1FF80000
03FF0000
007FE000
000FFC00
0001FF80
00001FF8
000003FC
0000007C
0000000C
ENDCHAR
STARTCHAR 003D
ENCODING 61
SWIDTH 416 0
DWIDTH 40 0
BBX 30 16 5 20
BITMAP
FFFFFFFC
FFFFFFFC
FFFFFFFC
00000000
00000000
00000000
00000000
00000000
00000000
00000000
00000000
00000000
00000000
FFFFFFFC
FFFFFFFC
FFFFFFFC
ENDCHAR
STARTCHAR 003E
ENCODING 62
SWIDTH 416 0
DWIDTH 40 0
BBX 30 22 5 17
BITMAP
C0000000
F8000000
FF000000
7FE00000
0FFC0000
00FFC000
001FF800
0003FF00
00007FE0
00000FFC
000001FC
000000FC
000007FC
00007FE0
0003FF00
001FF800
00FFC000
07FE0000
3FF00000
FF000000
F8000000
C0000000
ENDCHAR
STARTCHAR 003F
ENCODING 63
SWIDTH 343 0
DWIDTH 33 0
BBX 23 62 5 0
BITMAP
00FE00
03FFC0
0FFFE0
1F81F0
3E007C
7C003E
F0001E
00000E
00000E
00000E
00000E
00000E
00000E
00000E
00000E
00000E
00000E
00000E
00000E
00000E
00000E
00000E
00001E
00003C
00007C
0001F8
001FE0
001FC0
001F00
001C00
001C00
001C00
001C00
001C00
001C00
001C00
001C00
001C00
001C00
001C00
001C00
001C00
001C00
001C00
001C00
001C00
000000
000000
000000
000000
000000
000000
000000
000000
000000
000000
001C00
001C00
001C00
001C00
001C00
001C00
ENDCHAR
STARTCHAR 0040
ENCODING 64
SWIDTH 479 0
DWIDTH 46 0
BBX 36 54 5 3
BITMAP
00FFFC0000
03FFFF0000
07FFFFC000
1F8007E000
3E0000F000
7800007800
F000003C00
E000001C00
E000001C00
E000001C00
E000001C00
E000001C00
E000001C00
E000001C00
E001FC1C00
E007FF9C00
E00FFFDC00
E03FFFFC00
E07E03FC00
E0F800FC00
E1F0003C00
E1E0001C00
E1C0001C00
E1C0001C00
E1C0001C00
E1C0001C00
E1C0001C00
E1C0001C00
E1C0001C00
E1C0001C00
E1C0001C00
E1C0001C00
E1C0001C00
E1E0001C00
E1F0003C70
E0F800FC70
E07E03FC70
E03FFFFC70
E00FFFDC70
E007FF9C70
E001FC1C70
E000000070
E000000070
E000000070
E000000070
E000000070
E000000070
F0000000F0
78000001E0
3C000003C0
1F80000F80
0FFFFFFF00
03FFFFFC00
00FFFFF000
ENDCHAR
STARTCHAR 0041
ENCODING 65
SWIDTH 343 0
DWIDTH 33 0
BBX 23 62 5 0
BITMAP
00FE00
03FFC0
0FFFE0
1F81F0
3E007C
78003E
F0001E
E0000E
E0000E
E0000E
E0000E
E0000E
E0000E
E0000E
E0000E
E0000E
E0000E
E0000E
E0000E
E0000E
E0000E
E0000E
E0000E
E0000E
E0000E
E0000E
FFFFFE
FFFFFE
FFFFFE
E0000E
E0000E
E0000E
E0000E
E0000E
E0000E
E0000E
E0000E
E0000E
E0000E
E0000E
E0000E
E0000E
E0000E
E0000E
E0000E
E0000E
E0000E
E0000E
E0000E
E0000E
E0000E
E0000E
E0000E
E0000E
E0000E
E0000E
E0000E
E0000E
E0000E
E0000E
E0000E
E0000E
ENDCHAR
STARTCHAR 0042
ENCODING 66
SWIDTH 343 0
DWIDTH 33 0
BBX 23 62 5 0
BITMAP
FFFE00
FFFFC0
FFFFE0
E001F8
E0007C
E0003E
E0001E
E0000E
E0000E
E0000E
E0000E
E0000E
E0000E
E0000E
E0000E
E0000E
E0000E
E0000E
E0000E
E0000E
E0000E
E0000E
E0001E
E0003C
E00078
E001F0
FFFFE0
FFFF80
FFFFE0
E001F0
E00078
E0003C
E0001E
E0000E
E0000E
E0000E
E0000E
E0000E
E0000E
E0000E
E0000E
E0000E
E0000E
E0000E
E0000E
E0000E
E0000E
E0000E
E0000E
E0000E
E0000E
E0000E
E0000E
E0000E
E0000E
E0001E
E0003C
E00078
E001F0
FFFFE0
FFFF80
FFFE00
ENDCHAR
STARTCHAR 0043
ENCODING 67
SWIDTH 343 0
DWIDTH 33 0
BBX 23 62 5 0
BITMAP
00FE00
03FF80
0FFFE0
1F83F0
3E00F8
78003C
F0001E
E00000
E00000
E00000
E00000
E00000
E00000
E00000
E00000
E00000
E00000
E00000
E00000
E00000
E00000
E00000
E00000
E00000
E00000
E00000
E00000
E00000
E00000
E00000
E00000
E00000
E00000
E00000
E00000
E00000
E00000
E00000
E00000
E00000
E00000
E00000
E00000
E00000
E00000
E00000
E00000
E00000
E00000
E00000
E00000
E00000
E00000
E00000
E00008
F0001E
78003C
3C00F8
1F83F0
0FFFE0
03FF80
00FE00
ENDCHAR
STARTCHAR 0044
ENCODING 68
SWIDTH 343 0
DWIDTH 33 0
BBX 23 62 5 0
BITMAP
FFFE00
FFFFC0
FFFFE0
E001F8
E0007C
E0003E
E0001E
E0000E
E0000E
E0000E
E0000E
E0000E
E0000E
E0000E
E0000E
E0000E
E0000E
E0000E
E0000E
E0000E
E0000E
E0000E
E0000E
E0000E
E0000E
E0000E
E0000E
E0000E
E0000E
E0000E
E0000E
E0000E
E0000E
E0000E
E0000E
E0000E
E0000E
E0000E
E0000E
E0000E
E0000E
E0000E
E0000E
E0000E
E0000E
E0000E
E0000E
E0000E
E0000E
E0000E
E0000E
E0000E
E0000E
E0000E
E0000E
E0001E
E0003C
E00078
E001F0
FFFFE0
FFFF80
FFFE00
ENDCHAR
STARTCHAR 0045
ENCODING 69
SWIDTH 343 0
DWIDTH 33 0
BBX 23 62 5 0
BITMAP
00FE00
03FF80
0FFFE0
1F83F0
3C0078
78003C
F0001E
E00000
E00000
E00000
E00000
E00000
E00000
E00000
E00000
E00000
E00000
E00000
E00000
E00000
E00000
E00000
E00000
E00000
E00000
E00000
FFFF00
FFFF00
FFFF00
E00000
E00000
E00000
E00000
E00000
E00000
E00000
E00000
E00000
E00000
E00000
E00000
E00000
E00000
E00000
E00000
E00000
E00000
E00000
E00000
E00000
E00000
E00000
E00000
E00000
E00008
F0001E
78003C
3C00F8
1F83F0
0FFFE0
03FF80
00FE00
ENDCHAR
STARTCHAR 0046
ENCODING 70
SWIDTH 312 0
DWIDTH 30 0
BBX 23 62 5 0
BITMAP
00FE00
03FF80
0FFFE0
1F83F0
3C0078
78003C
F0001E
E00000
E00000
E00000
E00000
E00000
E00000
E00000
E00000
E00000
E00000
E00000
E00000
E00000
E00000
E00000
E00000
E00000
E00000
E00000
FFFF00
FFFF00
FFFF00
E00000
E00000
E00000
E00000
E00000
E00000
E00000
E00000
E00000
E00000
E00000
E00000
E00000
E00000
E00000
E00000
E00000
E00000
E00000
E00000
E00000
E00000
E00000
E00000
E00000
E00000
E00000
E00000
E00000
E00000
E00000
E00000
E00000
ENDCHAR
STARTCHAR 0047
ENCODING 71
SWIDTH 343 0
DWIDTH 33 0
BBX 23 62 5 0
BITMAP
00FE00
03FFC0
0FFFE0
1F83F0
3C007C
78003E
F0001C
E00000
E00000
E00000
E00000
E00000
E00000
E00000
E00000
E00000
E00000
E00000
E00000
E00000
E00000
E00000
E00000
E00000
E00000
E00000
E03FFE
E03FFE
E03FFE
E0000E
E0000E
E0000E
E0000E
E0000E
E0000E
E0000E
E0000E
E0000E
E0000E
E0000E
E0000E
E0000E
E0000E
E0000E
E0000E
E0000E
E0000E
E0000E
E0000E
E0000E
E0000E
E0000E
E0000E
E0000E
E0000E
F0001E
78003C
3E0078
1F81F0
0FFFE0
03FF80
00FE00
ENDCHAR
STARTCHAR 0048
ENCODING 72
SWIDTH 343 0
DWIDTH 33 0
BBX 23 62 5 0
BITMAP
E0000E
E0000E
E0000E
E0000E
E0000E
E0000E
E0000E
E0000E
E0000E
E0000E
E0000E
E0000E
E0000E
E0000E
E0000E
E0000E
E0000E
E0000E
E0000E
E0000E
E0000E
E0000E
E0000E
E0000E
E0000E
E0000E
FFFFFE
FFFFFE
FFFFFE
E0000E
E0000E
E0000E
E0000E
E0000E
E0000E
E0000E
E0000E
E0000E
E0000E
E0000E
E0000E
E0000E
E0000E
E0000E
E0000E
E0000E
E0000E
E0000E
E0000E
E0000E
E0000E
E0000E
E0000E
E0000E
E0000E
E0000E
E0000E
E0000E
E0000E
E0000E
E0000E
E0000E
ENDCHAR
STARTCHAR 0049
ENCODING 73
SWIDTH 145 0
DWIDTH 14 0
BBX 3 62 5 0
BITMAP
E0
E0
E0
E0
E0
E0
E0
E0
E0
E0
E0
E0
E0
E0
E0
E0
E0
E0
E0
E0
E0
E0
E0
E0
E0
E0
E0
E0
E0
E0
E0
E0
E0
E0
E0
E0
E0
E0
E0
E0
E0
E0
E0
E0
E0
E0
E0
E0
E0
E0
E0
E0
E0
E0
E0
E0
E0
E0
E0
E0
E0
E0
ENDCHAR
STARTCHAR 004A
ENCODING 74
SWIDTH 343 0
DWIDTH 33 0
BBX 23 62 5 0
BITMAP
00000E
00000E
00000E
00000E
00000E
00000E
00000E
00000E
00000E
00000E
00000E
00000E
00000E
00000E
00000E
00000E
00000E
00000E
00000E
00000E
00000E
00000E
00000E
00000E
00000E
00000E
00000E
00000E
00000E
00000E
00000E
00000E
00000E
00000E
00000E
00000E
00000E
00000E
00000E
00000E
00000E
00000E
00000E
00000E
00000E
00000E
00000E
00000E
00000E
00000E
00000E
00000E
00000E
00000E
10000E
F8001E
7C003C
3E0078
1F81F0
07FFE0
03FF80
00FE00
ENDCHAR
STARTCHAR 004B
ENCODING 75
SWIDTH 343 0
DWIDTH 33 0
BBX 23 62 5 0
BITMAP
E0000E
E0000E
E0000E
E0000E
E0000E
E0000E
E0000E
E0000E
E0000E
E0000E
E0000E
E0000E
E0000E
E0000E
E0000E
E0000E
E0000E
E0000E
E0000E
E0000E
E0000E
E0000E
E0001E
E0003C
E000F8
E007F0
E07FE0
E3FF80
EFFFE0
FF83F0
FE00F8
F8003C
F0001E
E0000E
E0000E
E0000E
E0000E
E0000E
E0000E
E0000E
E0000E
E0000E
E0000E
E0000E
E0000E
E0000E
E0000E
E0000E
E0000E
E0000E
E0000E
E0000E
E0000E
E0000E
E0000E
E0000E
E0000E
E0000E
E0000E
E0000E
E0000E
E0000E
ENDCHAR
STARTCHAR 004C
ENCODING 76
SWIDTH 343 0
DWIDTH 33 0
BBX 23 62 5 0
BITMAP
E00000
E00000
E00000
E00000
E00000
E00000
E00000
E00000
E00000
E00000
E00000
E00000
E00000
E00000
E00000
E00000
E00000
E00000
E00000
E00000
E00000
E00000
E00000
E00000
E00000
E00000
E00000
E00000
E00000
E00000
E00000
E00000
E00000
E00000
E00000
E00000
E00000
E00000
E00000
E00000
E00000
E00000
E00000
E00000
E00000
E00000
E00000
E00000
E00000
E00000
E00000
E00000
E00000
E00000
E00000
F00000
780000
3C0000
1F8000
0FFFFE
03FFFE
00FFFE
ENDCHAR
STARTCHAR 004D
ENCODING 77
SWIDTH 552 0
DWIDTH 53 0
BBX 43 62 5 0
BITMAP
00FE000FE000
03FFC03FFC00
0FFFE0FFFE00
1F81F9F81F00
3E007FE007C0
78003F8003E0
F0001F0001E0
E0000E0000E0
E0000E0000E0
E0000E0000E0
E0000E0000E0
E0000E0000E0
E0000E0000E0
E0000E0000E0
E0000E0000E0
E0000E0000E0
E0000E0000E0
E0000E0000E0
E0000E0000E0
E0000E0000E0
E0000E0000E0
E0000E0000E0
E0000E0000E0
E0000E0000E0
E0000E0000E0
E0000E0000E0
E0000E0000E0
E0000E0000E0
E0000E0000E0
E0000E0000E0
E0000E0000E0
E0000E0000E0
E0000E0000E0
E0000E0000E0
E0000E0000E0
E0000E0000E0
E0000E0000E0
E0000E0000E0
E0000E0000E0
E0000E0000E0
E0000E0000E0
E0000E0000E0
E0000E0000E0
E0000E0000E0
E0000E0000E0
E0000E0000E0
E0000E0000E0
E0000E0000E0
E0000E0000E0
E0000E0000E0
E0000E0000E0
E0000E0000E0
E0000E0000E0
E0000E0000E0
E0000E0000E0
E0000E0000E0
E0000E0000E0
E0000E0000E0
E0000E0000E0
E0000E0000E0
E0000E0000E0
E0000E0000E0
ENDCHAR
STARTCHAR 004E
ENCODING 78
SWIDTH 343 0
DWIDTH 33 0
BBX 23 62 5 0
BITMAP
00FE00
03FFC0
0FFFE0
1F81F0
3E007C
78003E
F0001E
E0000E
E0000E
E0000E
E0000E
E0000E
E0000E
E0000E
E0000E
E0000E
E0000E
E0000E
E0000E
E0000E
E0000E
E0000E
E0000E
E0000E
E0000E
E0000E
E0000E
E0000E
E0000E
E0000E
E0000E
E0000E
E0000E
E0000E
E0000E
E0000E
E0000E
E0000E
E0000E
E0000E
E0000E
E0000E
E0000E
E0000E
E0000E
E0000E
E0000E
E0000E
E0000E
E0000E
E0000E
E0000E
E0000E
E0000E
E0000E
E0000E
E0000E
E0000E
E0000E
E0000E
E0000E
E0000E
ENDCHAR
STARTCHAR 004F
ENCODING 79
SWIDTH 343 0
DWIDTH 33 0
BBX 23 62 5 0
BITMAP
00FE00
03FFC0
0FFFE0
1F81F0
3E007C
78003E
F0001E
E0000E
E0000E
E0000E
E0000E
E0000E
E0000E
E0000E
E0000E
E0000E
E0000E
E0000E
E0000E
E0000E
E0000E
E0000E
E0000E
E0000E
E0000E
E0000E
E0000E
E0000E
E0000E
E0000E
E0000E
E0000E
E0000E
E0000E
E0000E
E0000E
E0000E
E0000E
E0000E
E0000E
E0000E
E0000E
E0000E
E0000E
E0000E
E0000E
E0000E
E0000E
E0000E
E0000E
E0000E
E0000E
E0000E
E0000E
E0000E
F0001E
78003C
3E0078
1F81F0
0FFFE0
03FF80
00FE00
ENDCHAR
STARTCHAR 0050
ENCODING 80
SWIDTH 343 0
DWIDTH 33 0
BBX 23 62 5 0
BITMAP
FFFE00
FFFFC0
FFFFE0
E001F8
E0007C
E0003E
E0001E
E0000E
E0000E
E0000E
E0000E
E0000E
E0000E
E0000E
E0000E
E0000E
E0000E
E0000E
E0000E
E0000E
E0000E
E0000E
E0001E
E0003C
E0007C
E001F0
FFFFE0
FFFFC0
FFFE00
E00000
E00000
E00000
E00000
E00000
E00000
E00000
E00000
E00000
E00000
E00000
E00000
E00000
E00000
E00000
E00000
E00000
E00000
E00000
E00000
E00000
E00000
E00000
E00000
E00000
E00000
E00000
E00000
E00000
E00000
E00000
E00000
E00000
ENDCHAR
STARTCHAR 0051
ENCODING 81
SWIDTH 343 0
DWIDTH 33 0
BBX 32 68 5 -6
BITMAP
00FE0000
03FFC000
0FFFE000
1F81F000
3E007C00
78003E00
F0001E00
E0000E00
E0000E00
E0000E00
E0000E00
E0000E00
E0000E00
E0000E00
E0000E00
E0000E00
E0000E00
E0000E00
E0000E00
E0000E00
E0000E00
E0000E00
E0000E00
E0000E00
E0000E00
E0000E00
E0000E00
E0000E00
E0000E00
E0000E00
E0000E00
E0000E00
E0000E00
E0000E00
E0000E00
E0000E00
E0000E00
E0000E00
E0000E00
E0000E00
E0000E00
E0000E00
E0000E00
E0000E00
E0000E00
E0000E00
E0000E00
E0000E00
E0000E00
E0000E00
E0000E00
E0000E00
E0000E00
E0000E00
E0000E00
F0001E00
7C003C00
3E00F800
1FC7F000
0FFFE000
1FFFC000
1FFFC000
3C03E000
7801F000
F0007C04
20003FFF
00001FFF
000003FC
ENDCHAR
STARTCHAR 0052
ENCODING 82
SWIDTH 343 0
DWIDTH 33 0
BBX 23 62 5 0
BITMAP
FFFE00
FFFFC0
FFFFE0
E001F8
E0007C
E0003E
E0001E
E0000E
E0000E
E0000E
E0000E
E0000E
E0000E
E0000E
E0000E
E0000E
E0000E
E0000E
E0000E
E0000E
E0000E
E0000E
E0001E
E0003C
E00078
E001F0
FFFFE0
FFFF80
FFFFE0
E001F0
E00078
E0003C
E0001E
E0000E
E0000E
E0000E
E0000E
E0000E
E0000E
E0000E
E0000E
E0000E
E0000E
E0000E
E0000E
E0000E
E0000E
E0000E
E0000E
E0000E
E0000E
E0000E
E0000E
E0000E
E0000E
E0000E
E0000E
E0000E
E0000E
E0000E
E0000E
E0000E
ENDCHAR
STARTCHAR 0053
ENCODING 83
SWIDTH 343 0
DWIDTH 33 0
BBX 23 62 5 0
BITMAP
00FE00
03FFC0
0FFFE0
1F83F0
3E00FC
78003E
F0001E
E00000
E00000
E00000
E00000
E00000
E00000
E00000
E00000
E00000
E00000
E00000
E00000
E00000
E00000
E00000
F00000
780000
3E0000
1F8000
0FFE00
03FF80
00FFE0
0001F0
000078
00003C
00001E
00000E
00000E
00000E
00000E
00000E
00000E
00000E
00000E
00000E
00000E
00000E
00000E
00000E
00000E
00000E
00000E
00000E
00000E
00000E
00000E
00000E
10000E
F8001E
7C003C
3E0078
1F81F0
0FFFE0
03FF80
00FE00
ENDCHAR
STARTCHAR 0054
ENCODING 84
SWIDTH 343 0
DWIDTH 33 0
BBX 23 62 5 0
BITMAP
00FE00
03FF80
0FFFE0
1FBBF0
3E3878
78383C
F0381E
003800
003800
003800
003800
003800
003800
003800
003800
003800
003800
003800
003800
003800
003800
003800
003800
003800
003800
003800
003800
003800
003800
003800
003800
003800
003800
003800
003800
003800
003800
003800
003800
003800
003800
003800
003800
003800
003800
003800
003800
003800
003800
003800
003800
003800
003800
003800
003800
003800
003800
003800
003800
003800
003800
003800
ENDCHAR
STARTCHAR 0055
ENCODING 85
SWIDTH 343 0
DWIDTH 33 0
BBX 23 62 5 0
BITMAP
E0000E
E0000E
E0000E
E0000E
E0000E
E0000E
E0000E
E0000E
E0000E
E0000E
E0000E
E0000E
E0000E
E0000E
E0000E
E0000E
E0000E
E0000E
E0000E
E0000E
E0000E
E0000E
E0000E
E0000E
E0000E
E0000E
E0000E
E0000E
E0000E
E0000E
E0000E
E0000E
E0000E
E0000E
E0000E
E0000E
E0000E
E0000E
E0000E
E0000E
E0000E
E0000E
E0000E
E0000E
E0000E
E0000E
E0000E
E0000E
E0000E
E0000E
E0000E
E0000E
E0000E
E0000E
E0000E
F0001E
78003C
3E0078
1F81F0
0FFFE0
03FF80
00FE00
ENDCHAR
STARTCHAR 0056
ENCODING 86
SWIDTH 343 0
DWIDTH 33 0
BBX 23 62 5 0
BITMAP
E0000E
E0000E
70000E
70000E
70001E
70001C
70001C
70001C
38001C
38001C
38003C
380038
380038
380038
1C0038
1C0038
1C0038
1C0070
1C0070
1C0070
1E0070
0E0070
0E0070
0E00E0
0E00E0
0E00E0
0E00E0
0700E0
0700E0
0701E0
0701C0
0701C0
0701C0
0381C0
0381C0
0381C0
038380
038380
038380
03C380
01C380
01C380
01C700
01C700
01C700
01C700
00E700
00E700
00EF00
00EE00
00EE00
00EE00
007E00
007E00
007E00
007C00
007C00
007C00
003C00
003C00
003C00
003800
ENDCHAR
STARTCHAR 0057
ENCODING 87
SWIDTH 552 0
DWIDTH 53 0
BBX 43 62 5 0
BITMAP
E0000E0000E0
E0000E0000E0
E0000E0000E0
E0000E0000E0
E0000E0000E0
E0000E0000E0
E0000E0000E0
E0000E0000E0
E0000E0000E0
E0000E0000E0
E0000E0000E0
E0000E0000E0
E0000E0000E0
E0000E0000E0
E0000E0000E0
E0000E0000E0
E0000E0000E0
E0000E0000E0
E0000E0000E0
E0000E0000E0
E0000E0000E0
E0000E0000E0
E0000E0000E0
E0000E0000E0
E0000E0000E0
E0000E0000E0
E0000E0000E0
E0000E0000E0
E0000E0000E0
E0000E0000E0
E0000E0000E0
E0000E0000E0
E0000E0000E0
E0000E0000E0
E0000E0000E0
E0000E0000E0
E0000E0000E0
E0000E0000E0
E0000E0000E0
E0000E0000E0
E0000E0000E0
E0000E0000E0
E0000E0000E0
E0000E0000E0
E0000E0000E0
E0000E0000E0
E0000E0000E0
E0000E0000E0
E0000E0000E0
E0000E0000E0
E0000E0000E0
E0000E0000E0
E0000E0000E0
E0000E0000E0
E0000E0000E0
F0001F0001E0
78003F8003C0
3E007BE00780
1F81F1F81F00
0FFFE0FFFE00
03FF803FF800
00FE000FE000
ENDCHAR
STARTCHAR 0058
ENCODING 88
SWIDTH 343 0
DWIDTH 33 0
BBX 23 62 5 -1
BITMAP
F0000E
70000E
70001C
70001C
38001C
380038
380038
1C0038
1C0078
1C0070
0E0070
0E00F0
0E00E0
0F00E0
0701E0
0701C0
0781C0
0381C0
038380
03C380
01C380
01C700
01C700
00E700
00EE00
00EE00
007E00
007E00
007C00
003C00
003C00
003800
003C00
007C00
007C00
007E00
00FE00
00EE00
00EF00
00E700
01C700
01C700
01C380
038380
038380
0381C0
0701C0
0701C0
0700E0
0F00E0
0E00E0
0E0070
1E0070
1C0070
1C0078
3C0038
380038
38003C
78001C
70001C
70001E
70000E
ENDCHAR
STARTCHAR 0059
ENCODING 89
SWIDTH 343 0
DWIDTH 33 0
BBX 23 62 5 0
BITMAP
E0000E
E0000E
E0000E
E0000E
E0000E
E0000E
E0000E
E0000E
E0000E
E0000E
E0000E
E0000E
E0000E
E0000E
E0000E
E0000E
E0000E
E0000E
E0000E
E0000E
E0000E
E0000E
F0001E
78003C
3E007C
1F83F0
0FFFE0
03FFC0
00FE00
003800
003800
003800
003800
003800
003800
003800
003800
003800
003800
003800
003800
003800
003800
003800
003800
003800
003800
003800
003800
003800
003800
003800
003800
003800
003800
003800
003800
003800
003800
003800
003800
003800
ENDCHAR
STARTCHAR 005A
ENCODING 90
SWIDTH 343 0
DWIDTH 33 0
BBX 23 62 5 0
BITMAP
00FE00
03FF80
0FFFE0
1F81F0
3E0078
78003C
F0001E
00000E
00001C
00001C
00003C
000038
000038
000070
000070
0000F0
0000E0
0000E0
0001C0
0001C0
0003C0
000380
000380
000700
000700
000F00
000E00
000E00
001C00
001C00
003C00
003800
003800
007000
007000
00F000
00E000
00E000
01C000
01C000
03C000
038000
038000
070000
070000
0F0000
0E0000
0E0000
1C0000
1C0000
3C0000
380000
380000
700000
700008
F8001E
3C003C
1E00F8
0F83F0
07FFE0
01FF80
007E00
ENDCHAR
STARTCHAR 005B
ENCODING 91
SWIDTH 208 0
DWIDTH 20 0
BBX 10 82 5 -10
BITMAP
FFC0
FFC0
FFC0
E000
E000
E000
E000
E000
E000
E000
E000
E000
E000
E000
E000
E000
E000
E000
E000
E000
E000
E000
E000
E000
E000
E000
E000
E000
E000
E000
E000
E000
E000
E000
E000
E000
E000
E000
E000
E000
E000
E000
E000
E000
E000
E000
E000
E000
E000
E000
E000
E000
E000
E000
E000
E000
E000
E000
E000
E000
E000
E000
E000
E000
E000
E000
E000
E000
E000
E000
E000
E000
E000
E000
E000
E000
E000
E000
E000
FFC0
FFC0
FFC0
ENDCHAR
STARTCHAR 005C
ENCODING 92
SWIDTH 343 0
DWIDTH 33 0
BBX 23 62 5 -1
BITMAP
F00000
700000
700000
700000
380000
380000
380000
1C0000
1C0000
1C0000
0E0000
0E0000
0E0000
0F0000
070000
070000
078000
038000
038000
03C000
01C000
01C000
01C000
00E000
00E000
00E000
007000
007000
007000
003800
003800
003800
001C00
001C00
001C00
001E00
000E00
000E00
000F00
000700
000700
000780
000380
000380
000380
0001C0
0001C0
0001C0
0000E0
0000E0
0000E0
000070
000070
000070
000078
000038
000038
00003C
00001C
00001C
00001E
00000E
ENDCHAR
STARTCHAR 005D
ENCODING 93
SWIDTH 208 0
DWIDTH 20 0
BBX 10 82 5 -10
BITMAP
FFC0
FFC0
FFC0
01C0
01C0
01C0
01C0
01C0
01C0
01C0
01C0
01C0
01C0
01C0
01C0
01C0
01C0
01C0
01C0
01C0
01C0
01C0
01C0
01C0
01C0
01C0
01C0
01C0
01C0
01C0
01C0
01C0
01C0
01C0
01C0
01C0
01C0
01C0
01C0
01C0
01C0
01C0
01C0
01C0
01C0
01C0
01C0
01C0
01C0
01C0
01C0
01C0
01C0
01C0
01C0
01C0
01C0
01C0
01C0
01C0
01C0
01C0
01C0
01C0
01C0
01C0
01C0
01C0
01C0
01C0
01C0
01C0
01C0
01C0
01C0
01C0
01C0
01C0
01C0
FFC0
FFC0
FFC0
ENDCHAR
STARTCHAR 005E
ENCODING 94
SWIDTH 281 0
DWIDTH 27 0
BBX 16 13 5 48
BITMAP
01C0
03E0
07E0
07F0
0F70
0E78
1E38
1C3C
3C1C
381E
780E
700F
F007
ENDCHAR
STARTCHAR 005F
ENCODING 95
SWIDTH 479 0
DWIDTH 46 0
BBX 36 3 5 -19
BITMAP
FFFFFFFFF0
FFFFFFFFF0
FFFFFFFFF0
ENDCHAR
STARTCHAR 0060
ENCODING 96
SWIDTH 239 0
DWIDTH 23 0
BBX 12 13 5 48
BITMAP
F000
7800
3800
3C00
1E00
0E00
0F00
0780
0380
01C0
01E0
00F0
0070
ENDCHAR
STARTCHAR 0061
ENCODING 97
SWIDTH 343 0
DWIDTH 33 0
BBX 23 43 5 0
BITMAP
00FE00
03FF80
07FFE0
1F81F0
3E0078
7C003C
78001E
30000E
00000E
00000E
00000E
00000E
00000E
00000E
00000E
00000E
00000E
00FE0E
03FFCE
0FFFEE
1F83FE
3E007E
78003E
F0001E
E0000E
E0000E
E0000E
E0000E
E0000E
E0000E
E0000E
E0000E
E0000E
E0000E
E0000E
E0000E
F0001E
78003E
3E00FE
1FC3FE
0FFFEE
03FFCE
00FE0E
ENDCHAR
STARTCHAR 0062
ENCODING 98
SWIDTH 343 0
DWIDTH 33 0
BBX 23 62 5 0
BITMAP
E00000
E00000
E00000
E00000
E00000
E00000
E00000
E00000
E00000
E00000
E00000
E00000
E00000
E00000
E00000
E00000
E00000
E00000
E00000
E0FE00
E3FF80
EFFFE0
FFFFF0
FF00F8
FC007C
F8001E
F0000E
E0000E
E0000E
E0000E
E0000E
E0000E
E0000E
E0000E
E0000E
E0000E
E0000E
E0000E
E0000E
E0000E
E0000E
E0000E
E0000E
E0000E
E0000E
E0000E
E0000E
E0000E
E0000E
E0000E
E0000E
E0000E
E0000E
E0000E
E0000E
F0001E
F8003C
FE00F8
FFC3F0
EFFFE0
E3FF80
E0FE00
ENDCHAR
STARTCHAR 0063
ENCODING 99
SWIDTH 343 0
DWIDTH 33 0
BBX 23 43 5 0
BITMAP
00FE00
03FF80
07FFE0
1F83F0
3E00F8
78007C
F0003E
E0001C
E00000
E00000
E00000
E00000
E00000
E00000
E00000
E00000
E00000
E00000
E00000
E00000
E00000
E00000
E00000
E00000
E00000
E00000
E00000
E00000
E00000
E00000
E00000
E00000
E00000
E00000
E00000
E00000
F0001E
78003C
3C00F8
1F83F0
0FFFE0
03FF80
00FE00
ENDCHAR
STARTCHAR 0064
ENCODING 100
SWIDTH 343 0
DWIDTH 33 0
BBX 23 62 5 0
BITMAP
00000E
00000E
00000E
00000E
00000E
00000E
00000E
00000E
00000E
00000E
00000E
00000E
00000E
00000E
00000E
00000E
00000E
00000E
00000E
007E0E
03FFCE
07FFEE
1FFFFE
3F00FE
7C007E
78001E
F0000E
E0000E
E0000E
E0000E
E0000E
E0000E
E0000E
E0000E
E0000E
E0000E
E0000E
E0000E
E0000E
E0000E
E0000E
E0000E
E0000E
E0000E
E0000E
E0000E
E0000E
E0000E
E0000E
E0000E
E0000E
E0000E
E0000E
E0000E
E0000E
F0001E
7C003E
3E00FE
1FE7FE
0FFFFE
03FFCE
00FE0E
ENDCHAR
STARTCHAR 0065
ENCODING 101
SWIDTH 343 0
DWIDTH 33 0
BBX 23 43 5 0
BITMAP
00FE00
03FF80
07FFE0
1F81F0
3E0078
78003C
70001E
E0000E
E0000E
E0000E
E0000E
E0000E
E0000E
E0000E
E0000E
E0000E
E0000E
E0000E
E0000E
F0000E
F8001E
FC007C
FF01F8
FFFFF0
EFFFE0
E3FF80
E0FE00
E00000
E00000
E00000
E00000
E00000
E00000
E00000
E00000
E00000
F0001E
78003C
3C00F8
1F03F0
0FFFE0
03FF80
00FE00
ENDCHAR
STARTCHAR 0066
ENCODING 102
SWIDTH 260 0
DWIDTH 25 0
BBX 23 62 5 0
BITMAP
00FE00
03FF80
0FFFE0
1F83F0
3C00F8
78003C
F0001E
E00000
E00000
E00000
E00000
E00000
E00000
E00000
E00000
E00000
E00000
E00000
E00000
FFFF00
FFFF00
FFFF00
E00000
E00000
E00000
E00000
E00000
E00000
E00000
E00000
E00000
E00000
E00000
E00000
E00000
E00000
E00000
E00000
E00000
E00000
E00000
E00000
E00000
E00000
E00000
E00000
E00000
E00000
E00000
E00000
E00000
E00000
E00000
E00000
E00000
E00000
E00000
E00000
E00000
E00000
E00000
E00000
ENDCHAR
STARTCHAR 0067
ENCODING 103
SWIDTH 343 0
DWIDTH 33 0
BBX 23 63 5 -20
BITMAP
007E0E
03FFCE
07FFEE
1FFFFE
3F00FE
7C007E
78001E
F0000E
E0000E
E0000E
E0000E
E0000E
E0000E
E0000E
E0000E
E0000E
E0000E
E0000E
E0000E
E0000E
E0000E
E0000E
E0000E
E0000E
E0000E
E0000E
E0000E
E0000E
E0000E
E0000E
E0000E
E0000E
E0000E
E0000E
E0000E
E0000E
F0001E
78003E
3E00FE
1FC3FE
0FFFFE
03FFCE
00FE0E
00000E
00000E
00000E
00000E
00000E
00000E
00000E
00000E
00000E
00000E
00000E
00000E
00000E
00001E
00003C
000078
0001F0
000FE0
000F80
000E00
ENDCHAR
STARTCHAR 0068
ENCODING 104
SWIDTH 343 0
DWIDTH 33 0
BBX 23 62 5 0
BITMAP
E00000
E00000
E00000
E00000
E00000
E00000
E00000
E00000
E00000
E00000
E00000
E00000
E00000
E00000
E00000
E00000
E00000
E00000
E00000
E0FE00
E3FF80
E7FFE0
FF81F0
FE0078
F8003C
F0001E
E0000E
E0000E
E0000E
E0000E
E0000E
E0000E
E0000E
E0000E
E0000E
E0000E
E0000E
E0000E
E0000E
E0000E
E0000E
E0000E
E0000E
E0000E
E0000E
E0000E
E0000E
E0000E
E0000E
E0000E
E0000E
E0000E
E0000E
E0000E
E0000E
E0000E
E0000E
E0000E
E0000E
E0000E
E0000E
E0000E
ENDCHAR
STARTCHAR 0069
ENCODING 105
SWIDTH 145 0
DWIDTH 14 0
BBX 3 56 5 0
BITMAP
E0
E0
E0
E0
E0
E0
00
00
00
00
00
00
00
E0
E0
E0
E0
E0
E0
E0
E0
E0
E0
E0
E0
E0
E0
E0
E0
E0
E0
E0
E0
E0
E0
E0
E0
E0
E0
E0
E0
E0
E0
E0
E0
E0
E0
E0
E0
E0
E0
E0
E0
E0
E0
E0
ENDCHAR
STARTCHAR 006A
ENCODING 106
SWIDTH 156 0
DWIDTH 15 0
BBX 12 76 -2 -20
BITMAP
0070
0070
0070
0070
0070
0070
0000
0000
0000
0000
0000
0000
0000
0070
0070
0070
0070
0070
0070
0070
0070
0070
0070
0070
0070
0070
0070
0070
0070
0070
0070
0070
0070
0070
0070
0070
0070
0070
0070
0070
0070
0070
0070
0070
0070
0070
0070
0070
0070
0070
0070
0070
0070
0070
0070
0070
0070
0070
0070
0070
0070
0070
0070
0070
0070
0070
0070
0070
0070
00F0
01E0
07C0
1F80
FF00
FC00
E000
ENDCHAR
STARTCHAR 006B
ENCODING 107
SWIDTH 343 0
DWIDTH 33 0
BBX 23 62 5 0
BITMAP
E00000
E00000
E00000
E00000
E00000
E00000
E00000
E00000
E00000
E00000
E00000
E00000
E00000
E00000
E00000
E00000
E00000
E00000
E00000
E0000E
E0000E
E0000E
E0000E
E0000E
E0000E
E0000E
E0000E
E0000E
E0000E
E0001E
E0003C
E00078
E001F0
E0FFC0
E3FFC0
EFFFE0
FF81F8
FE007C
F8003E
F0001E
E0000E
E0000E
E0000E
E0000E
E0000E
E0000E
E0000E
E0000E
E0000E
E0000E
E0000E
E0000E
E0000E
E0000E
E0000E
E0000E
E0000E
E0000E
E0000E
E0000E
E0000E
E0000E
ENDCHAR
STARTCHAR 006C
ENCODING 108
SWIDTH 145 0
DWIDTH 14 0
BBX 3 62 5 0
BITMAP
E0
E0
E0
E0
E0
E0
E0
E0
E0
E0
E0
E0
E0
E0
E0
E0
E0
E0
E0
E0
E0
E0
E0
E0
E0
E0
E0
E0
E0
E0
E0
E0
E0
E0
E0
E0
E0
E0
E0
E0
E0
E0
E0
E0
E0
E0
E0
E0
E0
E0
E0
E0
E0
E0
E0
E0
E0
E0
E0
E0
E0
E0
ENDCHAR
STARTCHAR 006D
ENCODING 109
SWIDTH 552 0
DWIDTH 53 0
BBX 43 43 5 0
BITMAP
E0FE000FE000
E3FF803FF800
E7FFE0FFFE00
FF81F1F81F00
FE007BE00780
F8003F8003C0
F0001F0001E0
E0000E0000E0
E0000E0000E0
E0000E0000E0
E0000E0000E0
E0000E0000E0
E0000E0000E0
E0000E0000E0
E0000E0000E0
E0000E0000E0
E0000E0000E0
E0000E0000E0
E0000E0000E0
E0000E0000E0
E0000E0000E0
E0000E0000E0
E0000E0000E0
E0000E0000E0
E0000E0000E0
E0000E0000E0
E0000E0000E0
E0000E0000E0
E0000E0000E0
E0000E0000E0
E0000E0000E0
E0000E0000E0
E0000E0000E0
E0000E0000E0
E0000E0000E0
E0000E0000E0
E0000E0000E0
E0000E0000E0
E0000E0000E0
E0000E0000E0
E0000E0000E0
E0000E0000E0
E0000E0000E0
ENDCHAR
STARTCHAR 006E
ENCODING 110
SWIDTH 343 0
DWIDTH 33 0
BBX 23 43 5 0
BITMAP
E0FE00
E3FF80
E7FFE0
FF81F0
FE0078
F8003C
F0001E
E0000E
E0000E
E0000E
E0000E
E0000E
E0000E
E0000E
E0000E
E0000E
E0000E
E0000E
E0000E
E0000E
E0000E
E0000E
E0000E
E0000E
E0000E
E0000E
E0000E
E0000E
E0000E
E0000E
E0000E
E0000E
E0000E
E0000E
E0000E
E0000E
E0000E
E0000E
E0000E
E0000E
E0000E
E0000E
E0000E
ENDCHAR
STARTCHAR 006F
ENCODING 111
SWIDTH 343 0
DWIDTH 33 0
BBX 23 43 5 0
BITMAP
00FE00
03FF80
07FFE0
1F81F0
3E0078
78003C
70001E
E0000E
E0000E
E0000E
E0000E
E0000E
E0000E
E0000E
E0000E
E0000E
E0000E
E0000E
E0000E
E0000E
E0000E
E0000E
E0000E
E0000E
E0000E
E0000E
E0000E
E0000E
E0000E
E0000E
E0000E
E0000E
E0000E
E0000E
E0000E
E0000E
F0001E
78003C
3E0078
1F81F0
0FFFE0
03FF80
00FE00
ENDCHAR
STARTCHAR 0070
ENCODING 112
SWIDTH 343 0
DWIDTH 33 0
BBX 23 63 5 -20
BITMAP
E0FE00
E3FF80
EFFFE0
FFFFF0
FF00F8
FC007C
F8001E
F0000E
E0000E
E0000E
E0000E
E0000E
E0000E
E0000E
E0000E
E0000E
E0000E
E0000E
E0000E
E0000E
E0000E
E0000E
E0000E
E0000E
E0000E
E0000E
E0000E
E0000E
E0000E
E0000E
E0000E
E0000E
E0000E
E0000E
E0000E
E0000E
F0001E
F8003C
FE00F8
FFC3F0
EFFFE0
E3FF80
E0FE00
E00000
E00000
E00000
E00000
E00000
E00000
E00000
E00000
E00000
E00000
E00000
E00000
E00000
E00000
E00000
E00000
E00000
E00000
E00000
E00000
ENDCHAR
STARTCHAR 0071
ENCODING 113
SWIDTH 343 0
DWIDTH 33 0
BBX 23 63 5 -20
BITMAP
007E0E
03FFCE
07FFEE
1FFFFE
3F00FE
7C007E
78001E
F0000E
E0000E
E0000E
E0000E
E0000E
E0000E
E0000E
E0000E
E0000E
E0000E
E0000E
E0000E
E0000E
E0000E
E0000E
E0000E
E0000E
E0000E
E0000E
E0000E
E0000E
E0000E
E0000E
E0000E
E0000E
E0000E
E0000E
E0000E
E0000E
F0001E
78003E
3E00FE
1FC3FE
0FFFFE
03FFCE
00FE0E
00000E
00000E
00000E
00000E
00000E
00000E
00000E
00000E
00000E
00000E
00000E
00000E
00000E
00000E
00000E
00000E
00000E
00000E
00000E
00000E
ENDCHAR
STARTCHAR 0072
ENCODING 114
SWIDTH 312 0
DWIDTH 30 0
BBX 23 43 5 0
BITMAP
E0FE00
E3FF80
E7FFE0
FF83F0
FE00F8
F8007C
F0003E
E0001C
E00000
E00000
E00000
E00000
E00000
E00000
E00000
E00000
E00000
E00000
E00000
E00000
E00000
E00000
E00000
E00000
E00000
E00000
E00000
E00000
E00000
E00000
E00000
E00000
E00000
E00000
E00000
E00000
E00000
E00000
E00000
E00000
E00000
E00000
E00000
ENDCHAR
STARTCHAR 0073
ENCODING 115
SWIDTH 343 0
DWIDTH 33 0
BBX 23 43 5 0
BITMAP
00FE00
03FF80
07FFE0
1F83F0
3E00F8
78007C
70003E
E00018
E00000
E00000
E00000
E00000
E00000
E00000
E00000
E00000
F00000
780000
3E0000
1F8000
0FFE00
03FF80
00FFE0
0001F0
000078
00003C
00001E
00000E
00000E
00000E
00000E
00000E
00000E
00000E
00000E
10000E
F8001E
7C003C
3E0078
1F81F0
0FFFE0
03FF80
00FE00
ENDCHAR
STARTCHAR 0074
ENCODING 116
SWIDTH 250 0
DWIDTH 24 0
BBX 16 56 5 0
BITMAP
E000
E000
E000
E000
E000
E000
E000
E000
E000
E000
E000
E000
E000
E000
FFFF
FFFF
FFFF
E000
E000
E000
E000
E000
E000
E000
E000
E000
E000
E000
E000
E000
E000
E000
E000
E000
E000
E000
E000
E000
E000
E000
E000
E000
E000
E000
E000
E000
E000
E000
E000
F000
7800
3E00
1F80
0FF0
03F0
00F0
ENDCHAR
STARTCHAR 0075
ENCODING 117
SWIDTH 343 0
DWIDTH 33 0
BBX 23 43 5 0
BITMAP
E0000E
E0000E
E0000E
E0000E
E0000E
E0000E
E0000E
E0000E
E0000E
E0000E
E0000E
E0000E
E0000E
E0000E
E0000E
E0000E
E0000E
E0000E
E0000E
E0000E
E0000E
E0000E
E0000E
E0000E
E0000E
E0000E
E0000E
E0000E
E0000E
E0000E
E0000E
E0000E
E0000E
E0000E
E0000E
E0000E
F0001E
7C003E
3E00FE
1FE7FE
0FFFFE
03FFCE
00FE0E
ENDCHAR
STARTCHAR 0076
ENCODING 118
SWIDTH 302 0
DWIDTH 29 0
BBX 23 43 3 0
BITMAP
E0000E
70000E
70000E
70001E
70001C
38001C
38001C
38003C
380038
3C0038
1C0038
1C0038
1C0070
1C0070
0E0070
0E0070
0E00F0
0E00E0
0700E0
0700E0
0700E0
0701C0
0781C0
0381C0
0381C0
038380
038380
01C380
01C380
01C780
01C700
00E700
00E700
00E700
00EE00
00FE00
007E00
007E00
007C00
007C00
003C00
003C00
003C00
ENDCHAR
STARTCHAR 0077
ENCODING 119
SWIDTH 520 0
DWIDTH 50 0
BBX 43 43 3 0
BITMAP
E0000E0000E0
E0000E0000E0
E0000E0000E0
E0000E0000E0
E0000E0000E0
E0000E0000E0
E0000E0000E0
E0000E0000E0
E0000E0000E0
E0000E0000E0
E0000E0000E0
E0000E0000E0
E0000E0000E0
E0000E0000E0
E0000E0000E0
E0000E0000E0
E0000E0000E0
E0000E0000E0
E0000E0000E0
E0000E0000E0
E0000E0000E0
E0000E0000E0
E0000E0000E0
E0000E0000E0
E0000E0000E0
E0000E0000E0
E0000E0000E0
E0000E0000E0
E0000E0000E0
E0000E0000E0
E0000E0000E0
E0000E0000E0
E0000E0000E0
E0000E0000E0
E0000E0000E0
E0000E0000E0
F0001F0001E0
78003F8003C0
3E007BE00780
1F81F1F81F00
0FFFE0FFFE00
03FF803FF800
00FE000FE000
ENDCHAR
STARTCHAR 0078
ENCODING 120
SWIDTH 333 0
DWIDTH 32 0
BBX 23 43 4 -1
BITMAP
F0000E
70001C
70001C
380038
380038
1C0078
1C0070
1E00F0
0E00E0
0F01E0
0701C0
0783C0
038380
038380
01C700
01C700
00EE00
00EE00
00FE00
007C00
007C00
003800
007C00
007C00
007C00
00EE00
00EE00
01C700
01C700
03C380
038380
0783C0
0701C0
0F01E0
0E00E0
1E00F0
1C0070
1C0070
380038
380038
78001C
70001C
F0001E
ENDCHAR
STARTCHAR 0079
ENCODING 121
SWIDTH 343 0
DWIDTH 33 0
BBX 23 63 5 -20
BITMAP
E0000E
E0000E
E0000E
E0000E
E0000E
E0000E
E0000E
E0000E
E0000E
E0000E
E0000E
E0000E
E0000E
E0000E
E0000E
E0000E
E0000E
E0000E
E0000E
E0000E
E0000E
E0000E
E0000E
E0000E
E0000E
E0000E
E0000E
E0000E
E0000E
E0000E
E0000E
E0000E
E0000E
E0000E
E0000E
E0000E
F0001E
7C003E
3E00FE
1FE7FE
0FFFFE
03FFCE
00FE0E
00000E
00000E
00000E
00000E
00000E
00000E
00000E
00000E
00000E
00000E
00000E
00000E
00000E
00001E
00003C
000078
0001F0
000FE0
000F80
000E00
ENDCHAR
STARTCHAR 007A
ENCODING 122
SWIDTH 343 0
DWIDTH 33 0
BBX 23 43 5 0
BITMAP
00FE00
03FF80
07FFE0
1F83F0
3E00F8
7C003C
78001E
30001E
00001C
00003C
000078
000070
0000F0
0001E0
0001C0
0003C0
000380
000700
000F00
000E00
001E00
003C00
003800
007800
00F000
00E000
01E000
03C000
038000
078000
0F0000
0E0000
1E0000
3C0000
380000
780000
F8001E
3C003C
1E00F8
0F83F0
07FFE0
01FF80
007E00
ENDCHAR
STARTCHAR 007B
ENCODING 123
SWIDTH 312 0
DWIDTH 30 0
BBX 20 82 5 -10
BITMAP
000070
0003F0
0007F0
000F80
001E00
003C00
007800
007000
007000
007000
007000
007000
007000
007000
007000
007000
007000
007000
007000
007000
007000
007000
007000
007000
007000
007000
007000
007000
007000
007000
007000
007000
007000
007000
007000
007000
00F000
01E000
03C000
1F0000
FE0000
FE0000
FF8000
1FC000
03E000
01F000
00F000
007000
007000
007000
007000
007000
007000
007000
007000
007000
007000
007000
007000
007000
007000
007000
007000
007000
007000
007000
007000
007000
007000
007000
007000
007000
007000
007000
007000
007800
003C00
001E00
000F80
0007F0
0001F0
000070
ENDCHAR
STARTCHAR 007C
ENCODING 124
SWIDTH 145 0
DWIDTH 14 0
BBX 3 82 5 -10
BITMAP
E0
E0
E0
E0
E0
E0
E0
E0
E0
E0
E0
E0
E0
E0
E0
E0
E0
E0
E0
E0
E0
E0
E0
E0
E0
E0
E0
E0
E0
E0
E0
E0
E0
E0
E0
E0
E0
E0
E0
E0
E0
E0
E0
E0
E0
E0
E0
E0
E0
E0
E0
E0
E0
E0
E0
E0
E0
E0
E0
E0
E0
E0
E0
E0
E0
E0
E0
E0
E0
E0
E0
E0
E0
E0
E0
E0
E0
E0
E0
E0
E0
E0
ENDCHAR
STARTCHAR 007D
ENCODING 125
SWIDTH 312 0
DWIDTH 30 0
BBX 20 82 5 -10
BITMAP
F00000
FC0000
FF0000
1F8000
03C000
01E000
00F000
007000
007000
007000
007000
007000
007000
007000
007000
007000
007000
007000
007000
007000
007000
007000
007000
007000
007000
007000
007000
007000
007000
007000
007000
007000
007000
007000
007000
007000
003800
003C00
001E00
000F80
0003F0
0007F0
000FF0
001F80
003E00
007C00
007800
007000
007000
007000
007000
007000
007000
007000
007000
007000
007000
007000
007000
007000
007000
007000
007000
007000
007000
007000
007000
007000
007000
007000
007000
007000
007000
007000
007000
00F000
01E000
03C000
1F8000
FF0000
FC0000
F00000
ENDCHAR
STARTCHAR 007E
ENCODING 126
SWIDTH 468 0
DWIDTH 45 0
BBX 35 9 5 27
BITMAP
07F8000000
1FFF000080
1FFF8001C0
3C07E001E0
7801F003C0
F000FC0780
60003FFF80
00001FFF00
000003FC00
ENDCHAR
STARTCHAR 00A0
ENCODING 160
SWIDTH 1031 0
DWIDTH 99 0
BBX 89 77 5 -1
BITMAP
00000000001C000000000000
003E000E0036000200000000
0060000E0042000200000000
0060000E0042000200000000
004003C7C0428CE3DC000000
0073F42600428DB232000000
0043142600C28D1232000000
0043142600A28D1232000000
0043142600A28D1232000000
0043142600F289122C000000
0043142200FA891220000000
0043942200DA89B222000000
0041E022003C78E21C000000
000000000002000000000000
000000000022000000000000
00000000001C000000000000
000000000000000000000000
000000000000000000000000
000000000000000000000000
000000000000000000000000
000000000000000000000000
000000000000000000000000
200008000000000000000000
200108000000000000000000
200008000000000000000000
4C33B8401318B70088150000
524BEBA013E8B40149168000
5283EA2013C8B40149144000
5243EA2017C8B40149144000
5233E9E017C8B40169144000
620BE90017C8B80169144000
620BE90017C8B80169144000
423370E00F387000C6E44000
000000000100000000000000
000000000100000000000000
000000000300000000000000
000000000C00000000000000
000000000000000000000000
000000000000000000000000
000000000000000000000000
000000000000000000000000
000000000000000000000000
000002000000000000000000
000002000000000000000000
006002000000000000000000
000002000000000000000000
FF1F0E007BE00763C038C700
8918960046100D7220402880
891896004617ED7220402880
8918960046180D724040E880
8918960046100D3580412880
8918960046100D5400412880
891C9E2047700F521065E880
881C0A4004800011E018E080
000000400000000000000000
000000000000000000000000
000000000000000000000000
000000000000000000000000
000000000000000000000000
000000000000000000000000
000000000000000000000000
000000000000000000000000
000000000000000000000000
800000000000010000000000
800000000000010000000000
800000000000010000000000
E1C63C024424015FE3EEE000
9121A0025A24077390F31000
9121A002612404B390E21000
9123A002612404B3F3E21000
91C4A002612404B3E7E21000
9108A002612404B385E21000
9128A0025224049385E21000
80C52003CC1C0391E3E00000
000200004000000000000000
000000004000000000000000
00000000C000000000000000
ENDCHAR
STARTCHAR 00A1
ENCODING 161
SWIDTH 145 0
DWIDTH 14 0
BBX 3 63 5 -10
BITMAP
E0
E0
E0
E0
E0
E0
00
00
00
00
00
00
00
00
00
00
00
E0
E0
E0
E0
E0
E0
E0
E0
E0
E0
E0
E0
E0
E0
E0
E0
E0
E0
E0
E0
E0
E0
E0
E0
E0
E0
E0
E0
E0
E0
E0
E0
E0
E0
E0
E0
E0
E0
E0
E0
E0
E0
E0
E0
E0
E0
ENDCHAR
STARTCHAR 00A2
ENCODING 162
SWIDTH 343 0
DWIDTH 33 0
BBX 23 43 5 0
BITMAP
003800
003800
003800
003800
01FF00
07FFC0
0FFFE0
1FB9F8
3E387C
78383C
F0381E
E03800
E03800
E03800
E03800
E03800
E03800
E03800
E03800
E03800
E03800
E03800
E03800
E03800
E03800
E03800
E03800
E03800
E03800
E03800
E03800
E03800
F03818
F8383E
7C387C
3F38F8
1FFFF0
07FFC0
01FF80
007C00
003800
003800
003800
ENDCHAR
STARTCHAR 00A3
ENCODING 163
SWIDTH 343 0
DWIDTH 33 0
BBX 23 62 5 0
BITMAP
00FE00
03FF80
0FFFE0
1F83F0
3E0078
78003C
F0001E
F00000
F00000
F00000
F00000
F00000
F00000
F00000
F00000
F00000
F00000
F00000
F00000
F00000
F00000
F00000
F00000
FFFF00
FFFF00
FFFF00
F00000
F00000
F00000
F00000
F00000
F00000
F00000
FFFF00
FFFF00
FFFF00
F00000
F00000
F00000
F00000
F00000
F00000
F00000
F00000
F00000
F00000
F00000
F00000
F00000
F00000
F00000
F00000
F00000
F00000
F00000
F00000
780000
3E0000
1F8000
3FFFFE
3FFFFE
7FFFFE
ENDCHAR
STARTCHAR 00A4
ENCODING 164
SWIDTH 447 0
DWIDTH 43 0
BBX 31 32 6 17
BITMAP
40000004
E000000E
F00FE01E
783FFC3C
3CFFFE78
1FF83FF0
0FE007E0
078003C0
0F0001E0
0E0000E0
0E0000E0
0E0000E0
0E0000E0
0E0000E0
0E0000E0
0E0000E0
0E0000E0
0E0000E0
0E0000E0
0E0000E0
0E0000E0
0E0000E0
0E0000E0
0E0000E0
070001E0
0F8003E0
1FE007F0
3CF81F78
787FFE3C
F03FF81E
E007E00E
40000004
ENDCHAR
STARTCHAR 00A5
ENCODING 165
SWIDTH 343 0
DWIDTH 33 0
BBX 23 62 5 0
BITMAP
E0000E
E0000E
E0000E
E0000E
E0000E
E0000E
E0000E
E0000E
E0000E
E0000E
E0000E
E0000E
E0000E
E0000E
E0000E
E0000E
E0000E
E0000E
E0000E
E0000E
E0000E
E0000E
F0001E
78003C
3C007C
1F81F0
0FFFE0
03FFC0
00FE00
003800
003800
003800
003800
003800
003800
003800
003800
003800
003800
FFFFFE
FFFFFE
FFFFFE
003800
003800
003800
003800
003800
003800
003800
FFFFFE
FFFFFE
FFFFFE
003800
003800
003800
003800
003800
003800
003800
003800
003800
003800
ENDCHAR
STARTCHAR 00A6
ENCODING 166
SWIDTH 145 0
DWIDTH 14 0
BBX 3 69 5 -1
BITMAP
E0
E0
E0
E0
E0
E0
E0
E0
E0
E0
E0
E0
E0
E0
E0
E0
E0
E0
E0
E0
E0
E0
E0
E0
E0
E0
E0
E0
E0
E0
E0
00
00
00
00
00
00
00
E0
E0
E0
E0
E0
E0
E0
E0
E0
E0
E0
E0
E0
E0
E0
E0
E0
E0
E0
E0
E0
E0
E0
E0
E0
E0
E0
E0
E0
E0
E0
ENDCHAR
STARTCHAR 00A7
ENCODING 167
SWIDTH 343 0
DWIDTH 33 0
BBX 23 62 5 -8
BITMAP
00FE00
03FF80
0FFFE0
1F83F0
3E00F8
78003C
F0001E
E00008
E00000
E00000
E00000
E00000
E00000
E00000
E00000
E00000
F00000
780000
3E0000
1F8000
0FFE00
03FF80
0FFFE0
1F81F0
3E0078
78003C
F0001E
E0000E
E0000E
E0000E
E0000E
E0000E
E0000E
E0000E
E0000E
E0000E
F0001E
78003C
3E0078
1F81F0
0FFFE0
03FFC0
00FFF0
0001F8
00007C
00003E
00000E
00000E
00000E
00000E
00000E
00000E
00000E
00000E
00000E
70000E
78003E
3E007C
1F81F8
0FFFE0
03FFC0
00FE00
ENDCHAR
STARTCHAR 00A8
ENCODING 168
SWIDTH 239 0
DWIDTH 23 0
BBX 13 6 5 53
BITMAP
E038
E038
E038
E038
E038
E038
ENDCHAR
STARTCHAR 00A9
ENCODING 169
SWIDTH 354 0
DWIDTH 34 0
BBX 24 41 5 20
BITMAP
0E0038
3E003C
7E003E
F8000F
E00007
E03E07
E0FF07
E1FFC7
E3E1C7
E38007
E38007
E38007
E38007
E38007
E38007
E38007
E38007
E38007
E38007
E38007
E38007
E38007
E38007
E38007
E38007
E38007
E38007
E38007
E38007
E38007
E38007
E38087
E3E3C7
E1FF87
E0FF07
E03E07
E00007
F8000F
7E003E
3E003C
0E0038
ENDCHAR
STARTCHAR 00AA
ENCODING 170
SWIDTH 343 0
DWIDTH 33 0
BBX 23 33 5 30
BITMAP
00FE00
03FF80
0FFFE0
1F81F0
3E0078
7C003C
F8001E
30000E
00000E
00000E
00000E
00000E
00FE0E
03FFCE
0FFFEE
1F83FE
3E007E
78003E
F0001E
E0000E
E0000E
E0000E
E0000E
E0000E
E0000E
E0000E
F0001E
78003E
3E007E
1F81FE
0FFFEE
03FFCE
00FE0E
ENDCHAR
STARTCHAR 00AB
ENCODING 171
SWIDTH 354 0
DWIDTH 34 0
BBX 24 22 5 17
BITMAP
001000
003003
007007
01E00F
03E01E
07C07C
0F80F8
1F01F8
7E03F0
FC07E0
FC07C0
FC07C0
FC07E0
7E03F0
3F01F0
0F80F8
07C07C
03C01E
01E00F
00F007
003003
001001
ENDCHAR
STARTCHAR 00AC
ENCODING 172
SWIDTH 437 0
DWIDTH 42 0
BBX 32 12 5 18
BITMAP
FFFFFFC0
FFFFFFE0
FFFFFFF0
00000078
0000003C
0000001C
0000000E
0000000E
00000007
00000007
00000007
00000007
ENDCHAR
STARTCHAR 00AD
ENCODING 173
SWIDTH 416 0
DWIDTH 40 0
BBX 30 3 5 26
BITMAP
FFFFFFFC
FFFFFFFC
FFFFFFFC
ENDCHAR
STARTCHAR 00AE
ENCODING 174
SWIDTH 354 0
DWIDTH 34 0
BBX 24 41 5 20
BITMAP
0E0030
3E003C
7E003E
F8000F
E00007
E3FE07
E3FF07
E3FFC7
E383C7
E381C7
E381C7
E381C7
E381C7
E381C7
E381C7
E381C7
E383C7
E3FF87
E3FF07
E3FF87
E383C7
E381C7
E381C7
E381C7
E381C7
E381C7
E381C7
E381C7
E381C7
E381C7
E381C7
E381C7
E381C7
E381C7
E381C7
E381C7
E00007
F8000F
7E003E
3E003C
0E0030
ENDCHAR
STARTCHAR 00B0
ENCODING 176
SWIDTH 281 0
DWIDTH 27 0
BBX 16 24 5 42
BITMAP
03E0
0FF0
1FF8
1C38
181C
381C
380E
700E
7006
F007
E007
E007
E007
E007
E007
700F
700E
700E
381E
381C
1C38
1FF8
0FF0
03E0
ENDCHAR
STARTCHAR 00B1
ENCODING 177
SWIDTH 416 0
DWIDTH 40 0
BBX 29 37 5 6
BITMAP
00070000
00070000
00070000
00070000
00070000
00070000
00070000
00070000
00070000
00070000
00070000
00070000
00070000
00070000
FFFFFFF8
FFFFFFF8
FFFFFFF8
00070000
00070000
00070000
00070000
00070000
00070000
00070000
00070000
00070000
00070000
00070000
00070000
00070000
00000000
00000000
00000000
00000000
FFFFFFF8
FFFFFFF8
FFFFFFF8
ENDCHAR
STARTCHAR 00B2
ENCODING 178
SWIDTH 270 0
DWIDTH 26 0
BBX 16 44 5 19
BITMAP
03E0
0FF8
3FFC
7C3E
780F
F007
E007
E007
0007
0007
0007
0007
0007
0007
0007
0007
0007
000F
003E
07FC
1FF8
3FE0
7C00
F000
E000
E000
E000
E000
E000
E000
E000
E000
E000
E000
E000
E000
E000
E000
E000
F807
7C1E
3FFC
1FF8
07E0
ENDCHAR
STARTCHAR 00B3
ENCODING 179
SWIDTH 270 0
DWIDTH 26 0
BBX 16 44 5 19
BITMAP
03E0
0FF8
3FFC
7C3E
780F
F007
E007
E007
0007
0007
0007
0007
0007
0007
0007
0007
0007
000E
003C
00F8
00F8
00FC
003E
000F
0007
0007
0007
0007
0007
0007
0007
0007
0007
0007
0007
0007
0007
E007
E007
F00F
7C3E
3FFC
1FF8
07E0
ENDCHAR
STARTCHAR 00B4
ENCODING 180
SWIDTH 239 0
DWIDTH 23 0
BBX 12 13 5 50
BITMAP
0070
00F0
01E0
03C0
0380
0780
0F00
0E00
1E00
3C00
3800
7800
F000
ENDCHAR
STARTCHAR 00B5
ENCODING 181
SWIDTH 343 0
DWIDTH 33 0
BBX 23 55 5 -12
BITMAP
E0000E
E0000E
E0000E
E0000E
E0000E
E0000E
E0000E
E0000E
E0000E
E0000E
E0000E
E0000E
E0000E
E0000E
E0000E
E0000E
E0000E
E0000E
E0000E
E0000E
E0000E
E0000E
E0000E
E0000E
E0000E
E0000E
E0000E
E0000E
E0000E
E0000E
E0000E
E0000E
E0000E
E0000E
E0000E
E0000E
F0001E
FC003C
FE00F8
FFE7F0
EFFFE0
E3FF80
E0FE00
E01E00
E00F00
E00780
E003C0
E001F0
E000FE
E0007E
E0000E
E00000
E00000
E00000
E00000
ENDCHAR
STARTCHAR 00B6
ENCODING 182
SWIDTH 364 0
DWIDTH 35 0
BBX 25 67 5 -6
BITMAP
00FFFF80
03FFFF80
0FFFFF80
1FFFC380
3FFFC380
7FFFC380
FFFFC380
FFFFC380
FFFFC380
FFFFC380
FFFFC380
FFFFC380
FFFFC380
FFFFC380
FFFFC380
FFFFC380
FFFFC380
FFFFC380
FFFFC380
FFFFC380
FFFFC380
FFFFC380
FFFFC380
7FFFC380
3FFFC380
1FFFC380
0FFFC380
03FFC380
00FFC380
0001C380
0001C380
0001C380
0001C380
0001C380
0001C380
0001C380
0001C380
0001C380
0001C380
0001C380
0001C380
0001C380
0001C380
0001C380
0001C380
0001C380
0001C380
0001C380
0001C380
0001C380
0001C380
0001C380
0001C380
0001C380
0001C380
0001C380
0001C380
0001C380
0001C380
0001C380
0001C380
0001C380
0001C380
0001C380
0001C380
0001C380
0001C380
ENDCHAR
STARTCHAR 00B7
ENCODING 183
SWIDTH 145 0
DWIDTH 14 0
BBX 3 7 5 26
BITMAP
E0
E0
E0
E0
E0
E0
E0
ENDCHAR
STARTCHAR 00B8
ENCODING 184
SWIDTH 229 0
DWIDTH 22 0
BBX 12 20 5 -17
BITMAP
E000
E000
E000
E000
FC00
FE00
1F80
03C0
01E0
00F0
0070
0070
0070
00F0
01F0
03E0
1F80
FF00
FC00
F000
ENDCHAR
STARTCHAR 00B9
ENCODING 185
SWIDTH 270 0
DWIDTH 26 0
BBX 16 44 5 19
BITMAP
01C0
01C0
01C0
01C0
01C0
01C0
01C0
01C0
01C0
01C0
01C0
01C0
01C0
01C0
01C0
01C0
01C0
01C0
01C0
01C0
01C0
01C0
01C0
01C0
01C0
01C0
01C0
01C0
01C0
01C0
01C0
01C0
01C0
01C0
01C0
01C0
01C0
01C0
01C0
E1C3
79CE
3FFC
1FF8
07E0
ENDCHAR
STARTCHAR 00BA
ENCODING 186
SWIDTH 281 0
DWIDTH 27 0
BBX 16 19 5 47
BITMAP
03E0
0FF0
1FF8
1E3C
3C1C
781E
700F
E007
E007
E007
E007
E007
700F
780E
3C1E
1E3C
1FF8
0FF0
03E0
ENDCHAR
STARTCHAR 00BB
ENCODING 187
SWIDTH 354 0
DWIDTH 34 0
BBX 24 22 5 17
BITMAP
800000
C00400
E00700
700780
7C03C0
3E01E0
1F01F8
0F80FC
07E07E
03F03F
03F01F
03F01F
03F03F
07E07E
0F80FC
1F00F8
3E01F0
3C03C0
780780
E00700
C00600
800400
ENDCHAR
STARTCHAR 00BC
ENCODING 188
SWIDTH 656 0
DWIDTH 63 0
BBX 53 63 5 0
BITMAP
01C00000000000
01C000003C0000
01C00000380000
01C00000380000
01C00000380000
01C00000700000
01C00000700000
01C00000700000
01C00000E00000
01C00000E00000
01C00000E00000
01C00001C00000
01C00001C00000
01C00001C00000
01C00003C00000
01C00003800000
01C00003800000
01C00007800000
01C00007000000
01C00007003800
01C0000F003800
01C0000E003800
01C0000E007000
01C0001E007000
01C0001C007000
01C0001C007000
01C0001C00F000
01C0003800E000
01C0003800E000
01C0003800E000
01C0007001E000
01C0007001C700
01C0007001C700
01C000F001C700
01C000E001C700
01C000E0038700
01C001E0038700
01C001C0038700
01C001C0038700
E1C303C0070700
79CE0380070700
3FFC0380070700
1FF80780070700
07E007000E0700
000007000E0700
000007000E0700
00000E000E0700
00000E000E0700
00000E000E0700
00001C000F0738
00001C0007C7F0
00001C0003FFE0
0000380001FF80
00003800007F00
00003800000700
00007800000700
00007000000700
00007000000700
0000F000000700
0000E000000700
0000E000000700
0001E000000700
0001C000000700
ENDCHAR
STARTCHAR 00BD
ENCODING 189
SWIDTH 666 0
DWIDTH 64 0
BBX 54 63 5 0
BITMAP
01C00000000000
01C000003C0000
01C00000380000
01C00000380000
01C00000380000
01C00000700000
01C00000700000
01C00000700000
01C00000E00000
01C00000E00000
01C00000E00000
01C00001C00000
01C00001C00000
01C00001C00000
01C00003C00000
01C00003800000
01C00003800000
01C00007800000
01C00007000000
01C00007001F00
01C0000F007FC0
01C0000E00FFF0
01C0000E03E0F8
01C0001E03C03C
01C0001C07801C
01C0001C07001C
01C0001C07001C
01C0003800001C
01C0003800001C
01C0003800001C
01C0007000001C
01C0007000001C
01C0007000001C
01C000F000001C
01C000E000001C
01C000E000003C
01C001E00000F8
01C001C0001FF0
01C001C0007FE0
E1C303C000FF80
79CE038001F000
3FFC038003C000
1FF80780078000
07E00700070000
00000700070000
00000700070000
00000E00070000
00000E00070000
00000E00070000
00001C00070000
00001C00070000
00001C00070000
00003800070000
00003800070000
00003800070000
00007800070000
00007000070000
00007000078000
0000F00007C01C
0000E00003E078
0000E00001FFF0
0001E000007FE0
0001C000001F80
ENDCHAR
STARTCHAR 00BE
ENCODING 190
SWIDTH 666 0
DWIDTH 64 0
BBX 54 63 5 -1
BITMAP
03E00000000000
0FF800000E0000
1FFE00001E0000
3C1F00001C0000
780780001C0000
F00380003C0000
E0038000380000
E0038000380000
00038000780000
00038000700000
00038000700000
00038000F00000
00038000E00000
00038000E00000
00038000E00000
00038001C00000
00038001C00000
00070001C00000
001E0003800000
00F80003801C00
00F80003801C00
00FE0007001C00
001F0007003800
00078007003800
0003800F003800
0003800E003800
0003800E007800
0003801E007000
0003801C007000
0003801C007000
0003803C00F000
0003803800E380
0003803800E380
0003807800E380
0003807001E380
0003807001C380
0003807001C380
E00380E001C380
E00380E001C380
F00780E0038380
7C1F01C0038380
3FFE01C0038380
0FFC01C0038380
03F00380070380
00000380070380
00000380070380
00000780070380
00000700070380
00000700070380
00000F0007839C
00000E0003E3F8
00000E0001FFF0
00001E0000FFC0
00001C00003F80
00001C00000380
00003C00000380
00003800000380
00003800000380
00003800000380
00007000000380
00007000000380
00007000000380
0000E000000380
ENDCHAR
STARTCHAR 00BF
ENCODING 191
SWIDTH 343 0
DWIDTH 33 0
BBX 23 63 5 -10
BITMAP
007000
007000
007000
007000
007000
007000
000000
000000
000000
000000
000000
000000
000000
000000
000000
000000
000000
007000
007000
007000
007000
007000
007000
007000
007000
007000
007000
007000
007000
007000
007000
007000
007000
007000
03F000
07F000
1FF000
3F0000
7C0000
F80000
F00000
E00000
E00000
E00000
E00000
E00000
E00000
E00000
E00000
E00000
E00000
E00000
E00000
E00000
E00000
E0001C
70003E
78007C
3C00F8
1F83F0
07FFE0
03FF80
00FE00
ENDCHAR
STARTCHAR 00C0
ENCODING 192
SWIDTH 343 0
DWIDTH 33 0
BBX 23 77 5 0
BITMAP
078000
03C000
01E000
00F000
007800
003C00
003C00
001E00
000F00
000780
0003C0
000000
000000
000000
000000
00FE00
03FFC0
0FFFE0
1F81F0
3E007C
78003E
F0001E
E0000E
E0000E
E0000E
E0000E
E0000E
E0000E
E0000E
E0000E
E0000E
E0000E
E0000E
E0000E
E0000E
E0000E
E0000E
E0000E
E0000E
E0000E
E0000E
FFFFFE
FFFFFE
FFFFFE
E0000E
E0000E
E0000E
E0000E
E0000E
E0000E
E0000E
E0000E
E0000E
E0000E
E0000E
E0000E
E0000E
E0000E
E0000E
E0000E
E0000E
E0000E
E0000E
E0000E
E0000E
E0000E
E0000E
E0000E
E0000E
E0000E
E0000E
E0000E
E0000E
E0000E
E0000E
E0000E
E0000E
ENDCHAR
STARTCHAR 00C1
ENCODING 193
SWIDTH 343 0
DWIDTH 33 0
BBX 23 77 5 0
BITMAP
0003C0
000780
000F00
000F00
001E00
003C00
007800
00F000
01E000
03C000
03C000
000000
000000
000000
000000
00FE00
03FFC0
0FFFE0
1F81F0
3E007C
78003E
F0001E
E0000E
E0000E
E0000E
E0000E
E0000E
E0000E
E0000E
E0000E
E0000E
E0000E
E0000E
E0000E
E0000E
E0000E
E0000E
E0000E
E0000E
E0000E
E0000E
FFFFFE
FFFFFE
FFFFFE
E0000E
E0000E
E0000E
E0000E
E0000E
E0000E
E0000E
E0000E
E0000E
E0000E
E0000E
E0000E
E0000E
E0000E
E0000E
E0000E
E0000E
E0000E
E0000E
E0000E
E0000E
E0000E
E0000E
E0000E
E0000E
E0000E
E0000E
E0000E
E0000E
E0000E
E0000E
E0000E
E0000E
ENDCHAR
STARTCHAR 00C2
ENCODING 194
SWIDTH 343 0
DWIDTH 33 0
BBX 23 77 5 0
BITMAP
003C00
007C00
00FE00
00FF00
01EF00
03C780
03C380
0783C0
0F01E0
0E00E0
000070
000000
000000
000000
000000
00FE00
03FFC0
0FFFE0
1F81F0
3E007C
78003E
F0001E
F0000E
F0000E
F0000E
F0000E
E0000E
E0000E
E0000E
E0000E
E0000E
E0000E
E0000E
E0000E
E0000E
E0000E
E0000E
E0000E
E0000E
E0000E
E0000E
FFFFFE
FFFFFE
FFFFFE
E0000E
E0000E
E0000E
E0000E
E0000E
E0000E
E0000E
E0000E
E0000E
E0000E
E0000E
E0000E
E0000E
E0000E
E0000E
E0000E
E0000E
E0000E
E0000E
E0000E
E0000E
E0000E
E0000E
E0000E
E0000E
E0000E
E0000E
E0000E
E0000E
E0000E
E0000E
E0000E
E0000E
ENDCHAR
STARTCHAR 00C3
ENCODING 195
SWIDTH 343 0
DWIDTH 33 0
BBX 23 73 5 0
BITMAP
07E018
1FFC7C
7FFFFC
3C1FF0
1003C0
000000
000000
000000
000000
000000
000000
00FE00
03FFC0
0FFFE0
1F81F0
3E007C
78003E
F0001E
E0000E
E0000E
E0000E
E0000E
E0000E
E0000E
E0000E
E0000E
E0000E
E0000E
E0000E
E0000E
E0000E
E0000E
E0000E
E0000E
E0000E
E0000E
E0000E
FFFFFE
FFFFFE
FFFFFE
E0000E
E0000E
E0000E
E0000E
E0000E
E0000E
E0000E
E0000E
E0000E
E0000E
E0000E
E0000E
E0000E
E0000E
E0000E
E0000E
E0000E
E0000E
E0000E
E0000E
E0000E
E0000E
E0000E
E0000E
E0000E
E0000E
E0000E
E0000E
E0000E
E0000E
E0000E
E0000E
E0000E
ENDCHAR
STARTCHAR 00C4
ENCODING 196
SWIDTH 343 0
DWIDTH 33 0
BBX 23 74 5 0
BITMAP
0701C0
0701C0
0701C0
0701C0
0701C0
0701C0
000000
000000
000000
000000
000000
000000
00FE00
03FFC0
0FFFE0
1F81F0
3E007C
78003E
F0001E
E0000E
E0000E
E0000E
E0000E
E0000E
E0000E
E0000E
E0000E
E0000E
E0000E
E0000E
E0000E
E0000E
E0000E
E0000E
E0000E
E0000E
E0000E
E0000E
FFFFFE
FFFFFE
FFFFFE
E0000E
E0000E
E0000E
E0000E
E0000E
E0000E
E0000E
E0000E
E0000E
E0000E
E0000E
E0000E
E0000E
E0000E
E0000E
E0000E
E0000E
E0000E
E0000E
E0000E
E0000E
E0000E
E0000E
E0000E
E0000E
E0000E
E0000E
E0000E
E0000E
E0000E
E0000E
E0000E
E0000E
ENDCHAR
STARTCHAR 00C5
ENCODING 197
SWIDTH 343 0
DWIDTH 33 0
BBX 23 76 5 0
BITMAP
007C00
01FF00
03FF00
078780
0703C0
0E01E0
1E00E0
1C00E0
1C00E0
1C00E0
1E00E0
1F01F0
0F03E0
0787C0
07FF80
03FFC0
0FFFE0
1F81F0
3E007C
78003E
F0001E
E0000E
E0000E
E0000E
E0000E
E0000E
E0000E
E0000E
E0000E
E0000E
E0000E
E0000E
E0000E
E0000E
E0000E
E0000E
E0000E
E0000E
E0000E
E0000E
FFFFFE
FFFFFE
FFFFFE
E0000E
E0000E
E0000E
E0000E
E0000E
E0000E
E0000E
E0000E
E0000E
E0000E
E0000E
E0000E
E0000E
E0000E
E0000E
E0000E
E0000E
E0000E
E0000E
E0000E
E0000E
E0000E
E0000E
E0000E
E0000E
E0000E
E0000E
E0000E
E0000E
E0000E
E0000E
E0000E
E0000E
ENDCHAR
STARTCHAR 00C6
ENCODING 198
SWIDTH 552 0
DWIDTH 53 0
BBX 43 62 5 0
BITMAP
00FE000FE000
03FFC07FF800
0FFFE1FFFE00
1F81FBF83F00
3E007FC00F80
78003F8003C0
F0001F0001E0
E0000E000000
E0000E000000
E0000E000000
E0000E000000
E0000E000000
E0000E000000
E0000E000000
E0000E000000
E0000E000000
E0000E000000
E0000E000000
E0000E000000
E0000E000000
E0000E000000
E0000E000000
E0000E000000
E0000E000000
E0000E000000
E0000E000000
FFFFFFFFF000
FFFFFFFFF000
FFFFFFFFF000
E0000E000000
E0000E000000
E0000E000000
E0000E000000
E0000E000000
E0000E000000
E0000E000000
E0000E000000
E0000E000000
E0000E000000
E0000E000000
E0000E000000
E0000E000000
E0000E000000
E0000E000000
E0000E000000
E0000E000000
E0000E000000
E0000E000000
E0000E000000
E0000E000000
E0000E000000
E0000E000000
E0000E000000
E0000E000000
E0000E000100
E0000F0001E0
E000078007C0
E00003C00F80
E00001F03F00
E00000FFFE00
E000003FF800
E000000FE000
ENDCHAR
STARTCHAR 00C7
ENCODING 199
SWIDTH 343 0
DWIDTH 33 0
BBX 23 79 5 -17
BITMAP
00FE00
03FF80
0FFFE0
1F83F0
3E00F8
78003C
F0001E
E00000
E00000
E00000
E00000
E00000
E00000
E00000
E00000
E00000
E00000
E00000
E00000
E00000
E00000
E00000
E00000
E00000
E00000
E00000
E00000
E00000
E00000
E00000
E00000
E00000
E00000
E00000
E00000
E00000
E00000
E00000
E00000
E00000
E00000
E00000
E00000
E00000
E00000
E00000
E00000
E00000
E00000
E00000
E00000
E00000
E00000
E00000
E00000
F0001E
78003C
3C00F8
1F83F0
07FFE0
03FF80
00FE00
00F000
00FC00
00FF00
001F80
0003C0
0001E0
0000F0
000070
000070
000070
0000F0
0001F0
0003E0
001FC0
00FF00
00FE00
00F000
ENDCHAR
STARTCHAR 00C8
ENCODING 200
SWIDTH 343 0
DWIDTH 33 0
BBX 23 77 5 0
BITMAP
078000
03C000
01E000
00F000
007800
003C00
003C00
001E00
000F00
000780
0003C0
000000
000000
000000
000000
00FE00
03FF80
0FFFE0
1F83F0
3C0078
78003C
F0001E
E00000
E00000
E00000
E00000
E00000
E00000
E00000
E00000
E00000
E00000
E00000
E00000
E00000
E00000
E00000
E00000
E00000
E00000
E00000
FFFF00
FFFF00
FFFF00
E00000
E00000
E00000
E00000
E00000
E00000
E00000
E00000
E00000
E00000
E00000
E00000
E00000
E00000
E00000
E00000
E00000
E00000
E00000
E00000
E00000
E00000
E00000
E00000
E00000
E00008
F0001E
78003C
3C00F8
1F83F0
0FFFE0
03FF80
00FE00
ENDCHAR
STARTCHAR 00C9
ENCODING 201
SWIDTH 343 0
DWIDTH 33 0
BBX 23 77 5 0
BITMAP
0003C0
000780
000F00
000F00
001E00
003C00
007800
00F000
01E000
03C000
03C000
000000
000000
000000
000000
00FE00
03FF80
0FFFE0
1F83F0
3C0078
78003C
F0001E
E00000
E00000
E00000
E00000
E00000
E00000
E00000
E00000
E00000
E00000
E00000
E00000
E00000
E00000
E00000
E00000
E00000
E00000
E00000
FFFF00
FFFF00
FFFF00
E00000
E00000
E00000
E00000
E00000
E00000
E00000
E00000
E00000
E00000
E00000
E00000
E00000
E00000
E00000
E00000
E00000
E00000
E00000
E00000
E00000
E00000
E00000
E00000
E00000
E00008
F0001E
78003C
3C00F8
1F83F0
0FFFE0
03FF80
00FE00
ENDCHAR
STARTCHAR 00CA
ENCODING 202
SWIDTH 343 0
DWIDTH 33 0
BBX 23 77 5 0
BITMAP
003C00
007C00
00FE00
00FE00
01EF00
03C780
038780
0783C0
0F01C0
0E01E0
0000F0
000000
000000
000000
000000
00FE00
03FF80
0FFFE0
1F81F0
3E0078
78003C
F0001E
F00000
F00000
F00000
F00000
E00000
E00000
E00000
E00000
E00000
E00000
E00000
E00000
E00000
E00000
E00000
E00000
E00000
E00000
E00000
FFFF00
FFFF00
FFFF00
E00000
E00000
E00000
E00000
E00000
E00000
E00000
E00000
E00000
E00000
E00000
E00000
E00000
E00000
E00000
E00000
E00000
E00000
E00000
E00000
E00000
E00000
E00000
F00000
F00000
F00008
F0001E
78003C
3E00F8
1F83F0
0FFFE0
03FF80
00FE00
ENDCHAR
STARTCHAR 00CB
ENCODING 203
SWIDTH 343 0
DWIDTH 33 0
BBX 23 74 5 0
BITMAP
0701C0
0701C0
0701C0
0701C0
0701C0
0701C0
000000
000000
000000
000000
000000
000000
00FE00
03FF80
0FFFE0
1F83F0
3C0078
78003C
F0001E
E00000
E00000
E00000
E00000
E00000
E00000
E00000
E00000
E00000
E00000
E00000
E00000
E00000
E00000
E00000
E00000
E00000
E00000
E00000
FFFF00
FFFF00
FFFF00
E00000
E00000
E00000
E00000
E00000
E00000
E00000
E00000
E00000
E00000
E00000
E00000
E00000
E00000
E00000
E00000
E00000
E00000
E00000
E00000
E00000
E00000
E00000
E00000
E00000
E00008
F0001E
78003C
3C00F8
1F83F0
0FFFE0
03FF80
00FE00
ENDCHAR
STARTCHAR 00CC
ENCODING 204
SWIDTH 239 0
DWIDTH 23 0
BBX 12 77 5 0
BITMAP
F000
7800
3C00
1E00
1E00
0F00
0780
03C0
01E0
00F0
0070
0000
0000
0000
0000
0700
0700
0700
0700
0700
0700
0700
0700
0700
0700
0700
0700
0700
0700
0700
0700
0700
0700
0700
0700
0700
0700
0700
0700
0700
0700
0700
0700
0700
0700
0700
0700
0700
0700
0700
0700
0700
0700
0700
0700
0700
0700
0700
0700
0700
0700
0700
0700
0700
0700
0700
0700
0700
0700
0700
0700
0700
0700
0700
0700
0700
0700
ENDCHAR
STARTCHAR 00CD
ENCODING 205
SWIDTH 239 0
DWIDTH 23 0
BBX 13 77 5 0
BITMAP
0078
00F0
01E0
03C0
0780
0F80
0F00
1E00
3C00
7800
F000
0000
0000
0000
0000
0700
0700
0700
0700
0700
0700
0700
0700
0700
0700
0700
0700
0700
0700
0700
0700
0700
0700
0700
0700
0700
0700
0700
0700
0700
0700
0700
0700
0700
0700
0700
0700
0700
0700
0700
0700
0700
0700
0700
0700
0700
0700
0700
0700
0700
0700
0700
0700
0700
0700
0700
0700
0700
0700
0700
0700
0700
0700
0700
0700
0700
0700
ENDCHAR
STARTCHAR 00CE
ENCODING 206
SWIDTH 281 0
DWIDTH 27 0
BBX 15 77 6 0
BITMAP
0380
07C0
0FE0
0FE0
1EF0
3C70
3878
783C
F01C
E01E
000E
0000
0000
0000
0000
0380
0380
0380
0380
0380
0380
0380
0380
0380
0380
0380
0380
0380
0380
0380
0380
0380
0380
0380
0380
0380
0380
0380
0380
0380
0380
0380
0380
0380
0380
0380
0380
0380
0380
0380
0380
0380
0380
0380
0380
0380
0380
0380
0380
0380
0380
0380
0380
0380
0380
0380
0380
0380
0380
0380
0380
0380
0380
0380
0380
0380
0380
ENDCHAR
STARTCHAR 00CF
ENCODING 207
SWIDTH 239 0
DWIDTH 23 0
BBX 13 74 5 0
BITMAP
E038
E038
E038
E038
E038
E038
0000
0000
0000
0000
0000
0000
0700
0700
0700
0700
0700
0700
0700
0700
0700
0700
0700
0700
0700
0700
0700
0700
0700
0700
0700
0700
0700
0700
0700
0700
0700
0700
0700
0700
0700
0700
0700
0700
0700
0700
0700
0700
0700
0700
0700
0700
0700
0700
0700
0700
0700
0700
0700
0700
0700
0700
0700
0700
0700
0700
0700
0700
0700
0700
0700
0700
0700
0700
ENDCHAR
STARTCHAR 00D0
ENCODING 208
SWIDTH 375 0
DWIDTH 36 0
BBX 26 62 5 0
BITMAP
1FFFC000
1FFFF800
1FFFFC00
1C003E00
1C000F00
1C000780
1C0003C0
1C0001C0
1C0001C0
1C0001C0
1C0001C0
1C0001C0
1C0001C0
1C0001C0
1C0001C0
1C0001C0
1C0001C0
1C0001C0
1C0001C0
1C0001C0
1C0001C0
1C0001C0
1C0001C0
1C0001C0
1C0001C0
1C0001C0
FFFF01C0
FFFF01C0
FFFF01C0
1C0001C0
1C0001C0
1C0001C0
1C0001C0
1C0001C0
1C0001C0
1C0001C0
1C0001C0
1C0001C0
1C0001C0
1C0001C0
1C0001C0
1C0001C0
1C0001C0
1C0001C0
1C0001C0
1C0001C0
1C0001C0
1C0001C0
1C0001C0
1C0001C0
1C0001C0
1C0001C0
1C0001C0
1C0001C0
1C0001C0
1C0003C0
1C000780
1C000F00
1C003E00
1FFFFC00
1FFFF800
1FFFC000
ENDCHAR
STARTCHAR 00D1
ENCODING 209
SWIDTH 343 0
DWIDTH 33 0
BBX 23 73 5 0
BITMAP
07E018
1FFC7C
7FFFFC
3C1FF0
1003C0
000000
000000
000000
000000
000000
000000
00FE00
03FFC0
0FFFE0
1F81F0
3E007C
78003E
F0001E
E0000E
E0000E
E0000E
E0000E
E0000E
E0000E
E0000E
E0000E
E0000E
E0000E
E0000E
E0000E
E0000E
E0000E
E0000E
E0000E
E0000E
E0000E
E0000E
E0000E
E0000E
E0000E
E0000E
E0000E
E0000E
E0000E
E0000E
E0000E
E0000E
E0000E
E0000E
E0000E
E0000E
E0000E
E0000E
E0000E
E0000E
E0000E
E0000E
E0000E
E0000E
E0000E
E0000E
E0000E
E0000E
E0000E
E0000E
E0000E
E0000E
E0000E
E0000E
E0000E
E0000E
E0000E
E0000E
ENDCHAR
STARTCHAR 00D2
ENCODING 210
SWIDTH 343 0
DWIDTH 33 0
BBX 23 77 5 0
BITMAP
078000
03C000
01E000
00F000
007800
003C00
003C00
001E00
000F00
000780
0003C0
000000
000000
000000
000000
00FE00
03FFC0
0FFFE0
1F81F0
3E007C
78003E
F0001E
E0000E
E0000E
E0000E
E0000E
E0000E
E0000E
E0000E
E0000E
E0000E
E0000E
E0000E
E0000E
E0000E
E0000E
E0000E
E0000E
E0000E
E0000E
E0000E
E0000E
E0000E
E0000E
E0000E
E0000E
E0000E
E0000E
E0000E
E0000E
E0000E
E0000E
E0000E
E0000E
E0000E
E0000E
E0000E
E0000E
E0000E
E0000E
E0000E
E0000E
E0000E
E0000E
E0000E
E0000E
E0000E
E0000E
E0000E
E0000E
F0001E
78003C
3E0078
1F81F0
0FFFE0
03FF80
00FE00
ENDCHAR
STARTCHAR 00D3
ENCODING 211
SWIDTH 343 0
DWIDTH 33 0
BBX 23 77 5 0
BITMAP
0003C0
000780
000F00
000F00
001E00
003C00
007800
00F000
01E000
03C000
03C000
000000
000000
000000
000000
00FE00
03FFC0
0FFFE0
1F81F0
3E007C
78003E
F0001E
E0000E
E0000E
E0000E
E0000E
E0000E
E0000E
E0000E
E0000E
E0000E
E0000E
E0000E
E0000E
E0000E
E0000E
E0000E
E0000E
E0000E
E0000E
E0000E
E0000E
E0000E
E0000E
E0000E
E0000E
E0000E
E0000E
E0000E
E0000E
E0000E
E0000E
E0000E
E0000E
E0000E
E0000E
E0000E
E0000E
E0000E
E0000E
E0000E
E0000E
E0000E
E0000E
E0000E
E0000E
E0000E
E0000E
E0000E
E0000E
F0001E
78003C
3E0078
1F81F0
0FFFE0
03FF80
00FE00
ENDCHAR
STARTCHAR 00D4
ENCODING 212
SWIDTH 343 0
DWIDTH 33 0
BBX 23 77 5 0
BITMAP
003C00
007C00
00FE00
00FF00
01EF00
03C780
03C380
0783C0
0F01E0
0E00E0
000070
000000
000000
000000
000000
00FE00
03FFC0
0FFFE0
1F83F0
3E007C
78003E
F0001E
F0000E
F0000E
F0000E
F0000E
F0000E
F0000E
F0000E
F0000E
F0000E
F0000E
F0000E
F0000E
F0000E
F0000E
F0000E
F0000E
F0000E
F0000E
F0000E
F0000E
F0000E
F0000E
F0000E
F0000E
F0000E
F0000E
F0000E
F0000E
F0000E
F0000E
F0000E
F0000E
F0000E
F0000E
F0000E
F0000E
F0000E
F0000E
F0000E
F0000E
F0000E
F0000E
F0000E
F0000E
F0000E
F0000E
F0000E
F0000E
F0001E
78003C
3E0078
1F81F0
0FFFE0
03FF80
00FE00
ENDCHAR
STARTCHAR 00D5
ENCODING 213
SWIDTH 343 0
DWIDTH 33 0
BBX 23 73 5 0
BITMAP
07E018
1FFC7C
7FFFFC
3C1FF0
1003C0
000000
000000
000000
000000
000000
000000
00FE00
03FFC0
0FFFE0
1F81F0
3E007C
78003E
F0001E
E0000E
E0000E
E0000E
E0000E
E0000E
E0000E
E0000E
E0000E
E0000E
E0000E
E0000E
E0000E
E0000E
E0000E
E0000E
E0000E
E0000E
E0000E
E0000E
E0000E
E0000E
E0000E
E0000E
E0000E
E0000E
E0000E
E0000E
E0000E
E0000E
E0000E
E0000E
E0000E
E0000E
E0000E
E0000E
E0000E
E0000E
E0000E
E0000E
E0000E
E0000E
E0000E
E0000E
E0000E
E0000E
E0000E
E0000E
E0000E
F0001E
78003C
3E0078
1F81F0
0FFFE0
03FF80
00FE00
ENDCHAR
STARTCHAR 00D6
ENCODING 214
SWIDTH 343 0
DWIDTH 33 0
BBX 23 74 5 0
BITMAP
0701C0
0701C0
0701C0
0701C0
0701C0
0701C0
000000
000000
000000
000000
000000
000000
00FE00
03FFC0
0FFFE0
1F81F0
3E007C
78003E
F0001E
E0000E
E0000E
E0000E
E0000E
E0000E
E0000E
E0000E
E0000E
E0000E
E0000E
E0000E
E0000E
E0000E
E0000E
E0000E
E0000E
E0000E
E0000E
E0000E
E0000E
E0000E
E0000E
E0000E
E0000E
E0000E
E0000E
E0000E
E0000E
E0000E
E0000E
E0000E
E0000E
E0000E
E0000E
E0000E
E0000E
E0000E
E0000E
E0000E
E0000E
E0000E
E0000E
E0000E
E0000E
E0000E
E0000E
E0000E
E0000E
F0001E
78003C
3E0078
1F81F0
0FFFE0
03FF80
00FE00
ENDCHAR
STARTCHAR 00D7
ENCODING 215
SWIDTH 343 0
DWIDTH 33 0
BBX 23 22 5 16
BITMAP
200004
70000E
F8001C
FC0038
7E0070
3F00E0
0F81E0
07C3C0
03E780
01FF00
007E00
003C00
007E00
00FF00
01C380
0381C0
0700E0
0E0070
1C0018
38000C
700006
600000
ENDCHAR
STARTCHAR 00D8
ENCODING 216
SWIDTH 343 0
DWIDTH 33 0
BBX 23 70 5 -4
BITMAP
00000E
00000E
00001E
00001C
00FE1C
03FFDC
0FFFF8
1F81F8
3E0078
78007C
F0007E
F0007E
F0007E
F000EE
F000EE
F000EE
F001EE
F001CE
F001CE
F001CE
F0038E
F0038E
F0038E
F0078E
F0070E
F0070E
F0070E
F00E0E
F00E0E
F00E0E
F01E0E
F01C0E
F01C0E
F01C0E
F0380E
F0380E
F0380E
F0780E
F0700E
F0700E
F0700E
F0E00E
F0E00E
F0E00E
F1E00E
F1C00E
F1C00E
F1C00E
F3800E
F3800E
F3800E
F7800E
F7000E
F7000E
FF000E
FE000E
FE000E
FE000E
FE000E
FC001E
7C003C
3E0078
3F83F0
3FFFE0
3BFF80
78FE00
700000
700000
F00000
E00000
ENDCHAR
STARTCHAR 00D9
ENCODING 217
SWIDTH 343 0
DWIDTH 33 0
BBX 23 77 5 0
BITMAP
078000
03C000
01E000
00F000
007800
003C00
003C00
001E00
000F00
000780
0003C0
000000
000000
000000
000000
E0000E
E0000E
E0000E
E0000E
E0000E
E0000E
E0000E
E0000E
E0000E
E0000E
E0000E
E0000E
E0000E
E0000E
E0000E
E0000E
E0000E
E0000E
E0000E
E0000E
E0000E
E0000E
E0000E
E0000E
E0000E
E0000E
E0000E
E0000E
E0000E
E0000E
E0000E
E0000E
E0000E
E0000E
E0000E
E0000E
E0000E
E0000E
E0000E
E0000E
E0000E
E0000E
E0000E
E0000E
E0000E
E0000E
E0000E
E0000E
E0000E
E0000E
E0000E
E0000E
E0000E
E0000E
E0000E
F0001E
78003C
3E0078
1F81F0
0FFFE0
03FF80
00FE00
ENDCHAR
STARTCHAR 00DA
ENCODING 218
SWIDTH 343 0
DWIDTH 33 0
BBX 23 77 5 0
BITMAP
0003C0
000780
000F00
000F00
001E00
003C00
007800
00F000
01E000
03C000
03C000
000000
000000
000000
000000
E0000E
E0000E
E0000E
E0000E
E0000E
E0000E
E0000E
E0000E
E0000E
E0000E
E0000E
E0000E
E0000E
E0000E
E0000E
E0000E
E0000E
E0000E
E0000E
E0000E
E0000E
E0000E
E0000E
E0000E
E0000E
E0000E
E0000E
E0000E
E0000E
E0000E
E0000E
E0000E
E0000E
E0000E
E0000E
E0000E
E0000E
E0000E
E0000E
E0000E
E0000E
E0000E
E0000E
E0000E
E0000E
E0000E
E0000E
E0000E
E0000E
E0000E
E0000E
E0000E
E0000E
E0000E
E0000E
F0001E
78003C
3E0078
1F81F0
0FFFE0
03FF80
00FE00
ENDCHAR
STARTCHAR 00DB
ENCODING 219
SWIDTH 343 0
DWIDTH 33 0
BBX 23 77 5 0
BITMAP
003C00
007C00
00FE00
00FF00
01EF00
03C780
03C380
0783C0
0F01E0
0E00E0
000070
000000
000000
000000
000000
E0000E
E0000E
E0000E
E0000E
E0000E
E0000E
E0000E
E0000E
E0000E
E0000E
E0000E
E0000E
E0000E
E0000E
E0000E
E0000E
E0000E
E0000E
E0000E
E0000E
E0000E
E0000E
E0000E
E0000E
E0000E
E0000E
E0000E
E0000E
E0000E
E0000E
E0000E
E0000E
E0000E
E0000E
E0000E
E0000E
E0000E
E0000E
E0000E
E0000E
E0000E
E0000E
E0000E
E0000E
E0000E
E0000E
E0000E
E0000E
F0000E
F0000E
F0000E
F0000E
F0000E
F0000E
F0000E
F0001E
78003C
3E0078
1F81F0
0FFFE0
03FF80
00FE00
ENDCHAR
STARTCHAR 00DC
ENCODING 220
SWIDTH 343 0
DWIDTH 33 0
BBX 23 74 5 0
BITMAP
0701C0
0701C0
0701C0
0701C0
0701C0
0701C0
000000
000000
000000
000000
000000
000000
E0000E
E0000E
E0000E
E0000E
E0000E
E0000E
E0000E
E0000E
E0000E
E0000E
E0000E
E0000E
E0000E
E0000E
E0000E
E0000E
E0000E
E0000E
E0000E
E0000E
E0000E
E0000E
E0000E
E0000E
E0000E
E0000E
E0000E
E0000E
E0000E
E0000E
E0000E
E0000E
E0000E
E0000E
E0000E
E0000E
E0000E
E0000E
E0000E
E0000E
E0000E
E0000E
E0000E
E0000E
E0000E
E0000E
E0000E
E0000E
E0000E
E0000E
E0000E
E0000E
E0000E
E0000E
E0000E
F0001E
78003C
3E0078
1F81F0
0FFFE0
03FF80
00FE00
ENDCHAR
STARTCHAR 00DD
ENCODING 221
SWIDTH 343 0
DWIDTH 33 0
BBX 23 77 5 0
BITMAP
0003C0
000780
000F00
000F00
001E00
003C00
007800
00F000
01E000
03C000
03C000
000000
000000
000000
000000
E0000E
E0000E
E0000E
E0000E
E0000E
E0000E
E0000E
E0000E
E0000E
E0000E
E0000E
E0000E
E0000E
E0000E
E0000E
E0000E
E0000E
E0000E
E0000E
E0000E
E0000E
E0000E
F0001E
78003C
3E007C
1F83F0
0FFFE0
03FFC0
00FE00
003800
003800
003800
003800
003800
003800
003800
003800
003800
003800
003800
003800
003800
003800
003800
003800
003800
003800
003800
003800
003800
003800
003800
003800
003800
003800
003800
003800
003800
003800
003800
003800
003800
ENDCHAR
STARTCHAR 00DE
ENCODING 222
SWIDTH 343 0
DWIDTH 33 0
BBX 23 62 5 0
BITMAP
E00000
E00000
E00000
E00000
E00000
E00000
E00000
E00000
E00000
E00000
E00000
E00000
E00000
E00000
E00000
FFFE00
FFFF80
FFFFE0
E001F0
E00078
E0003C
E0001E
E0000E
E0000E
E0000E
E0000E
E0000E
E0000E
E0000E
E0000E
E0000E
E0000E
E0000E
E0000E
E0000E
E0000E
E0000E
E0000E
E0000E
E0000E
E0000E
E0001E
E0003C
E00078
E001F0
FFFFE0
FFFFC0
FFFE00
E00000
E00000
E00000
E00000
E00000
E00000
E00000
E00000
E00000
E00000
E00000
E00000
E00000
E00000
ENDCHAR
STARTCHAR 00DF
ENCODING 223
SWIDTH 364 0
DWIDTH 35 0
BBX 25 69 5 -7
BITMAP
00FE0000
03FF8000
0FFFE000
1F81F000
3E007800
78003C00
F0001E00
E0000E00
E0000E00
E0000E00
E0000E00
E0000E00
E0000E00
E0000E00
E0000E00
E0000E00
E0000E00
E0000E00
E0000E00
E0001E00
E0003C00
E0007800
E003F000
E03FE000
E0FF8000
E0FE0000
E1E00000
E1C00000
E1C00000
E1E00000
E0FF8000
E07FE000
E03FF800
E0007C00
E0001E00
E0000F00
E0000780
E0000380
E0000380
E0000380
E0000380
E0000380
E0000380
E0000380
E0000380
E0000380
E0000380
E0000380
E0000380
E0000380
E0000380
E0000380
E0000380
E0000380
E0000380
E0000380
E0000380
E0000380
E0000380
E0000380
E0000380
E0000380
00000780
00000F80
00001F00
00007E00
0003F800
0003F000
00038000
ENDCHAR
STARTCHAR 00E0
ENCODING 224
SWIDTH 343 0
DWIDTH 33 0
BBX 23 58 5 0
BITMAP
078000
03C000
01E000
00F000
007800
003800
003C00
001E00
000F00
000780
0003C0
000000
000000
000000
000000
00FE00
03FF80
07FFE0
1F81F0
3E0078
7C003C
78001E
30000E
00000E
00000E
00000E
00000E
00000E
00000E
00000E
00000E
00000E
00FE0E
03FFCE
0FFFEE
1F83FE
3E007E
78003E
F0001E
E0000E
E0000E
E0000E
E0000E
E0000E
E0000E
E0000E
E0000E
E0000E
E0000E
E0000E
E0000E
F0001E
78003E
3E00FE
1FC3FE
0FFFEE
03FFCE
00FE0E
ENDCHAR
STARTCHAR 00E1
ENCODING 225
SWIDTH 343 0
DWIDTH 33 0
BBX 23 58 5 0
BITMAP
0003C0
000780
000F00
000F00
001E00
003C00
007800
00F000
01E000
01C000
03C000
000000
000000
000000
000000
00FE00
03FF80
07FFE0
1F81F0
3E0078
7C003C
78001E
30000E
00000E
00000E
00000E
00000E
00000E
00000E
00000E
00000E
00000E
00FE0E
03FFCE
0FFFEE
1F83FE
3E007E
78003E
F0001E
E0000E
E0000E
E0000E
E0000E
E0000E
E0000E
E0000E
E0000E
E0000E
E0000E
E0000E
E0000E
F0001E
78003E
3E00FE
1FC3FE
0FFFEE
03FFCE
00FE0E
ENDCHAR
STARTCHAR 00E2
ENCODING 226
SWIDTH 343 0
DWIDTH 33 0
BBX 23 58 5 0
BITMAP
003C00
007C00
00FE00
00FF00
01EF00
03C780
03C380
0783C0
0701E0
0E00E0
1E00F0
000000
000000
000000
000000
00FE00
03FF80
07FFE0
1F83F0
3E00F8
7C003C
78001E
30000E
00000E
00000E
00000E
00000E
00000E
00000E
00000E
00000E
00000E
00FE0E
03FFCE
0FFFEE
1F83FE
3E00FE
78003E
F0001E
F0000E
F0000E
F0000E
F0000E
F0000E
F0000E
F0000E
F0000E
F0000E
F0000E
F0000E
F0000E
F8001E
7C003E
3E00FE
1FC3FE
0FFFEE
03FFCE
00FE0E
ENDCHAR
STARTCHAR 00E3
ENCODING 227
SWIDTH 343 0
DWIDTH 33 0
BBX 23 54 5 0
BITMAP
07E000
1FFC7C
7FFFFC
3C1FF0
1007C0
000000
000000
000000
000000
000000
000000
00FE00
03FF80
07FFE0
1F81F0
3E0078
7C003C
78001E
30000E
00000E
00000E
00000E
00000E
00000E
00000E
00000E
00000E
00000E
00FE0E
03FFCE
0FFFEE
1F83FE
3E007E
78003E
F0001E
E0000E
E0000E
E0000E
E0000E
E0000E
E0000E
E0000E
E0000E
E0000E
E0000E
E0000E
E0000E
F0001E
78003E
3E00FE
1FC3FE
0FFFEE
03FFCE
00FE0E
ENDCHAR
STARTCHAR 00E4
ENCODING 228
SWIDTH 343 0
DWIDTH 33 0
BBX 23 54 5 0
BITMAP
0701C0
0701C0
0701C0
0701C0
0701C0
0701C0
000000
000000
000000
000000
000000
00FE00
03FF80
07FFE0
1F81F0
3E0078
7C003C
78001E
30000E
00000E
00000E
00000E
00000E
00000E
00000E
00000E
00000E
00000E
00FE0E
03FFCE
0FFFEE
1F83FE
3E007E
78003E
F0001E
E0000E
E0000E
E0000E
E0000E
E0000E
E0000E
E0000E
E0000E
E0000E
E0000E
E0000E
E0000E
F0001E
78003E
3E00FE
1FC3FE
0FFFEE
03FFCE
00FE0E
ENDCHAR
STARTCHAR 00E5
ENCODING 229
SWIDTH 343 0
DWIDTH 33 0
BBX 22 57 5 0
BITMAP
00FC00
01FF00
07FF80
0F83C0
1F01E0
1C00E0
1C00E0
1C00E0
0F01C0
0787C0
03FF80
01FE00
00FC00
000000
00FC00
03FF80
0FFFC0
1F83E0
3E00F0
7C0078
F8003C
30001C
00001C
00001C
00001C
00001C
00001C
00001C
00001C
00001C
00001C
00FE1C
03FF9C
0FFFFC
1F83FC
3C00FC
78007C
F0003C
E0001C
E0001C
E0001C
E0001C
E0001C
E0001C
E0001C
E0001C
E0001C
E0001C
E0001C
E0001C
F0003C
78007C
3E00FC
1F87FC
0FFFFC
03FF9C
00FE1C
ENDCHAR
STARTCHAR 00E6
ENCODING 230
SWIDTH 552 0
DWIDTH 53 0
BBX 43 43 5 0
BITMAP
00FE0007E000
03FF803FF800
07FFE07FFE00
1F81F1F81F00
3E007BE00780
7C003F8003C0
78001F0001E0
30000E0000E0
00000E0000E0
00000E0000E0
00000E0000E0
00000E0000E0
00000E0000E0
00000E0000E0
00000E0000E0
00000E0000E0
00000E0000E0
007E0E0000E0
03FFCE0000E0
07FFEE0000E0
1F81FF0001E0
3E007F8003C0
78003FE00780
70001FF81F00
E0000EFFFE00
E0000E3FF800
E0000E0FE000
E0000E000000
E0000E000000
E0000E000000
E0000E000000
E0000E000000
E0000E000000
E0000E000000
E0000E000000
E0000E000000
F0001F0001E0
78003F8003C0
3E007BC00F80
1F81F1F03F00
0FFFE0FFFE00
03FF803FF800
00FE000FE000
ENDCHAR
STARTCHAR 00E7
ENCODING 231
SWIDTH 343 0
DWIDTH 33 0
BBX 23 60 5 -17
BITMAP
00FE00
03FF80
07FFE0
1F83F0
3E00F8
78007C
F0003E
E0001C
E00000
E00000
E00000
E00000
E00000
E00000
E00000
E00000
E00000
E00000
E00000
E00000
E00000
E00000
E00000
E00000
E00000
E00000
E00000
E00000
E00000
E00000
E00000
E00000
E00000
E00000
E00000
E00000
F0001E
78003C
3C00F8
1F83F0
07FFE0
03FF80
00FE00
00F000
00FC00
00FF00
001F80
0003C0
0001E0
0000F0
000070
000070
000070
0000F0
0001F0
0003E0
001FC0
00FF00
00FE00
00F000
ENDCHAR
STARTCHAR 00E8
ENCODING 232
SWIDTH 343 0
DWIDTH 33 0
BBX 23 58 5 0
BITMAP
078000
03C000
01E000
00F000
007800
003800
003C00
001E00
000F00
000780
0003C0
000000
000000
000000
000000
00FE00
03FF80
07FFE0
1F81F0
3E0078
78003C
70001E
E0000E
E0000E
E0000E
E0000E
E0000E
E0000E
E0000E
E0000E
E0000E
E0000E
E0000E
E0000E
F0000E
F8001E
FC007C
FF01F8
FFFFF0
EFFFE0
E3FF80
E0FE00
E00000
E00000
E00000
E00000
E00000
E00000
E00000
E00000
E00000
F0001E
78003C
3C00F8
1F03F0
0FFFE0
03FF80
00FE00
ENDCHAR
STARTCHAR 00E9
ENCODING 233
SWIDTH 343 0
DWIDTH 33 0
BBX 23 58 5 0
BITMAP
0003C0
000780
000F00
000F00
001E00
003C00
007800
00F000
01E000
01C000
03C000
000000
000000
000000
000000
00FE00
03FF80
07FFE0
1F81F0
3E0078
78003C
70001E
E0000E
E0000E
E0000E
E0000E
E0000E
E0000E
E0000E
E0000E
E0000E
E0000E
E0000E
E0000E
F0000E
F8001E
FC007C
FF01F8
FFFFF0
EFFFE0
E3FF80
E0FE00
E00000
E00000
E00000
E00000
E00000
E00000
E00000
E00000
E00000
F0001E
78003C
3C00F8
1F03F0
0FFFE0
03FF80
00FE00
ENDCHAR
STARTCHAR 00EA
ENCODING 234
SWIDTH 343 0
DWIDTH 33 0
BBX 23 58 5 0
BITMAP
003C00
007C00
00FE00
00FF00
01EF00
03C780
03C380
0783C0
0701E0
0E00E0
1E00F0
000000
000000
000000
000000
00FE00
03FF80
07FFE0
1F83F0
3E00F8
7C003C
70001E
F0000E
F0000E
F0000E
F0000E
F0000E
F0000E
F0000E
F0000E
F0000E
F0000E
F0000E
F0000E
F0001E
F8003E
FC007C
FF01F8
FFFFF0
EFFFE0
E3FF80
E0FE00
E00000
E00000
E00000
E00000
E00000
E00000
E00000
E00000
F00000
F0001E
78003C
3E00F8
1F83F0
0FFFE0
03FF80
00FE00
ENDCHAR
STARTCHAR 00EB
ENCODING 235
SWIDTH 343 0
DWIDTH 33 0
BBX 23 54 5 0
BITMAP
0701C0
0701C0
0701C0
0701C0
0701C0
0701C0
000000
000000
000000
000000
000000
00FE00
03FF80
07FFE0
1F81F0
3E0078
78003C
70001E
E0000E
E0000E
E0000E
E0000E
E0000E
E0000E
E0000E
E0000E
E0000E
E0000E
E0000E
E0000E
F0000E
F8001E
FC007C
FF01F8
FFFFF0
EFFFE0
E3FF80
E0FE00
E00000
E00000
E00000
E00000
E00000
E00000
E00000
E00000
E00000
F0001E
78003C
3C00F8
1F03F0
0FFFE0
03FF80
00FE00
ENDCHAR
STARTCHAR 00EC
ENCODING 236
SWIDTH 239 0
DWIDTH 23 0
BBX 12 58 5 0
BITMAP
F000
7800
3C00
1E00
1E00
0F00
0780
03C0
01E0
00F0
00F0
0000
0000
0000
0000
0700
0700
0700
0700
0700
0700
0700
0700
0700
0700
0700
0700
0700
0700
0700
0700
0700
0700
0700
0700
0700
0700
0700
0700
0700
0700
0700
0700
0700
0700
0700
0700
0700
0700
0700
0700
0700
0700
0700
0700
0700
0700
0700
ENDCHAR
STARTCHAR 00ED
ENCODING 237
SWIDTH 239 0
DWIDTH 23 0
BBX 13 58 5 0
BITMAP
0078
00F0
01E0
03C0
0780
0780
0F00
1E00
3C00
7800
F000
0000
0000
0000
0000
0700
0700
0700
0700
0700
0700
0700
0700
0700
0700
0700
0700
0700
0700
0700
0700
0700
0700
0700
0700
0700
0700
0700
0700
0700
0700
0700
0700
0700
0700
0700
0700
0700
0700
0700
0700
0700
0700
0700
0700
0700
0700
0700
ENDCHAR
STARTCHAR 00EE
ENCODING 238
SWIDTH 281 0
DWIDTH 27 0
BBX 16 58 5 0
BITMAP
01C0
03E0
03F0
07F0
0F78
0E38
1C3C
3C1E
380E
700F
F007
0000
0000
0000
0000
01C0
01C0
01C0
01C0
01C0
01C0
01C0
01C0
01C0
01C0
01C0
01C0
01C0
01C0
01C0
01C0
01C0
01C0
01C0
01C0
01C0
01C0
01C0
01C0
01C0
01C0
01C0
01C0
01C0
01C0
01C0
01C0
01C0
01C0
01C0
01C0
01C0
01C0
01C0
01C0
01C0
01C0
01C0
ENDCHAR
STARTCHAR 00EF
ENCODING 239
SWIDTH 239 0
DWIDTH 23 0
BBX 13 54 5 0
BITMAP
E038
E038
E038
E038
E038
E038
0000
0000
0000
0000
0000
0700
0700
0700
0700
0700
0700
0700
0700
0700
0700
0700
0700
0700
0700
0700
0700
0700
0700
0700
0700
0700
0700
0700
0700
0700
0700
0700
0700
0700
0700
0700
0700
0700
0700
0700
0700
0700
0700
0700
0700
0700
0700
0700
ENDCHAR
STARTCHAR 00F0
ENCODING 240
SWIDTH 375 0
DWIDTH 36 0
BBX 27 62 5 0
BITMAP
000E0000
000F8000
000FE000
0001F040
000078C0
00003FE0
00001FC0
00003F00
0000FE00
0003FE00
000FCE00
003F0E00
00FC0E00
01F80E00
01E00E00
01800E00
00000E00
00000E00
00000E00
007E0E00
03FFCE00
07FFEE00
1FFFFE00
3F00FE00
7C007E00
78001E00
F0000E00
E0000E00
E0000E00
E0000E00
E0000E00
E0000E00
E0000E00
E0000E00
E0000E00
E0000E00
E0000E00
E0000E00
E0000E00
E0000E00
E0000E00
E0000E00
E0000E00
E0000E00
E0000E00
E0000E00
E0000E00
E0000E00
E0000E00
E0000E00
E0000E00
E0000E00
E0000E00
E0000E00
E0000E00
F0001E00
78003C00
3E007800
1F81F000
0FFFE000
03FF8000
00FE0000
ENDCHAR
STARTCHAR 00F1
ENCODING 241
SWIDTH 343 0
DWIDTH 33 0
BBX 23 54 5 0
BITMAP
07E000
1FFC7C
7FFFFC
3C1FF0
1007C0
000000
000000
000000
000000
000000
000000
E0FE00
E3FF80
E7FFE0
FF81F0
FE0078
F8003C
F0001E
E0000E
E0000E
E0000E
E0000E
E0000E
E0000E
E0000E
E0000E
E0000E
E0000E
E0000E
E0000E
E0000E
E0000E
E0000E
E0000E
E0000E
E0000E
E0000E
E0000E
E0000E
E0000E
E0000E
E0000E
E0000E
E0000E
E0000E
E0000E
E0000E
E0000E
E0000E
E0000E
E0000E
E0000E
E0000E
E0000E
ENDCHAR
STARTCHAR 00F2
ENCODING 242
SWIDTH 343 0
DWIDTH 33 0
BBX 23 58 5 0
BITMAP
078000
03C000
01E000
00F000
007800
003800
003C00
001E00
000F00
000780
0003C0
000000
000000
000000
000000
00FE00
03FF80
07FFE0
1F81F0
3E0078
78003C
70001E
E0000E
E0000E
E0000E
E0000E
E0000E
E0000E
E0000E
E0000E
E0000E
E0000E
E0000E
E0000E
E0000E
E0000E
E0000E
E0000E
E0000E
E0000E
E0000E
E0000E
E0000E
E0000E
E0000E
E0000E
E0000E
E0000E
E0000E
E0000E
E0000E
F0001E
78003C
3E0078
1F81F0
0FFFE0
03FF80
00FE00
ENDCHAR
STARTCHAR 00F3
ENCODING 243
SWIDTH 343 0
DWIDTH 33 0
BBX 23 58 5 0
BITMAP
0003C0
000780
000F00
000F00
001E00
003C00
007800
00F000
01E000
01C000
03C000
000000
000000
000000
000000
00FE00
03FF80
07FFE0
1F81F0
3E0078
78003C
70001E
E0000E
E0000E
E0000E
E0000E
E0000E
E0000E
E0000E
E0000E
E0000E
E0000E
E0000E
E0000E
E0000E
E0000E
E0000E
E0000E
E0000E
E0000E
E0000E
E0000E
E0000E
E0000E
E0000E
E0000E
E0000E
E0000E
E0000E
E0000E
E0000E
F0001E
78003C
3E0078
1F81F0
0FFFE0
03FF80
00FE00
ENDCHAR
STARTCHAR 00F4
ENCODING 244
SWIDTH 343 0
DWIDTH 33 0
BBX 23 58 5 0
BITMAP
003C00
007C00
00FE00
00FF00
01EF00
03C780
03C380
0783C0
0701E0
0E00E0
1E00F0
000000
000000
000000
000000
00FE00
03FF80
07FFE0
1F83F0
3E0078
78003C
70001E
F0000E
F0000E
F0000E
F0000E
F0000E
F0000E
F0000E
F0000E
F0000E
F0000E
F0000E
F0000E
F0000E
F0000E
F0000E
F0000E
F0000E
F0000E
F0000E
F0000E
F0000E
F0000E
F0000E
F0000E
F0000E
F0000E
F0000E
F0000E
F0000E
F0001E
78003C
3E0078
1F81F0
0FFFE0
03FF80
00FE00
ENDCHAR
STARTCHAR 00F5
ENCODING 245
SWIDTH 343 0
DWIDTH 33 0
BBX 23 54 5 0
BITMAP
07E000
1FFC7C
7FFFFC
3C1FF0
1007C0
000000
000000
000000
000000
000000
000000
00FE00
03FF80
07FFE0
1F81F0
3E0078
78003C
70001E
E0000E
E0000E
E0000E
E0000E
E0000E
E0000E
E0000E
E0000E
E0000E
E0000E
E0000E
E0000E
E0000E
E0000E
E0000E
E0000E
E0000E
E0000E
E0000E
E0000E
E0000E
E0000E
E0000E
E0000E
E0000E
E0000E
E0000E
E0000E
E0000E
F0001E
78003C
3E0078
1F81F0
0FFFE0
03FF80
00FE00
ENDCHAR
STARTCHAR 00F6
ENCODING 246
SWIDTH 343 0
DWIDTH 33 0
BBX 23 54 5 0
BITMAP
0701C0
0701C0
0701C0
0701C0
0701C0
0701C0
000000
000000
000000
000000
000000
00FE00
03FF80
07FFE0
1F81F0
3E0078
78003C
70001E
E0000E
E0000E
E0000E
E0000E
E0000E
E0000E
E0000E
E0000E
E0000E
E0000E
E0000E
E0000E
E0000E
E0000E
E0000E
E0000E
E0000E
E0000E
E0000E
E0000E
E0000E
E0000E
E0000E
E0000E
E0000E
E0000E
E0000E
E0000E
E0000E
F0001E
78003C
3E0078
1F81F0
0FFFE0
03FF80
00FE00
ENDCHAR
STARTCHAR 00F7
ENCODING 247
SWIDTH 416 0
DWIDTH 40 0
BBX 29 28 5 14
BITMAP
00070000
00070000
00070000
00070000
00070000
00070000
00000000
00000000
00000000
00000000
00000000
00000000
00000000
FFFFFFF8
FFFFFFF8
FFFFFFF8
00000000
00000000
00000000
00000000
00000000
00000000
00070000
00070000
00070000
00070000
00070000
00070000
ENDCHAR
STARTCHAR 00F8
ENCODING 248
SWIDTH 343 0
DWIDTH 33 0
BBX 23 50 5 -4
BITMAP
000038
000038
000038
00FE70
03FFF0
07FFF0
1F83F0
3E00F8
7800FC
7001FE
E0018E
E0018E
E0038E
E0030E
E0030E
E0070E
E0060E
E0060E
E00E0E
E00E0E
E00C0E
E00C0E
E01C0E
E0180E
E0180E
E0380E
E0300E
E0300E
E0700E
E0600E
E0600E
E0E00E
E0C00E
E0C00E
E1C00E
E1C00E
E1800E
E3800E
E3800E
FB001E
7F003C
3F0078
1F81F0
0FFFE0
0FFF80
1CFE00
1C0000
1C0000
3C0000
380000
ENDCHAR
STARTCHAR 00F9
ENCODING 249
SWIDTH 343 0
DWIDTH 33 0
BBX 23 58 5 0
BITMAP
078000
03C000
01E000
00F000
007800
003800
003C00
001E00
000F00
000780
0003C0
000000
000000
000000
000000
E0000E
E0000E
E0000E
E0000E
E0000E
E0000E
E0000E
E0000E
E0000E
E0000E
E0000E
E0000E
E0000E
E0000E
E0000E
E0000E
E0000E
E0000E
E0000E
E0000E
E0000E
E0000E
E0000E
E0000E
E0000E
E0000E
E0000E
E0000E
E0000E
E0000E
E0000E
E0000E
E0000E
E0000E
E0000E
E0000E
F0001E
7C003E
3E00FE
1FE7FE
0FFFFE
03FFCE
00FE0E
ENDCHAR
STARTCHAR 00FA
ENCODING 250
SWIDTH 343 0
DWIDTH 33 0
BBX 23 58 5 0
BITMAP
0003C0
000780
000F00
000F00
001E00
003C00
007800
00F000
01E000
01C000
03C000
000000
000000
000000
000000
E0000E
E0000E
E0000E
E0000E
E0000E
E0000E
E0000E
E0000E
E0000E
E0000E
E0000E
E0000E
E0000E
E0000E
E0000E
E0000E
E0000E
E0000E
E0000E
E0000E
E0000E
E0000E
E0000E
E0000E
E0000E
E0000E
E0000E
E0000E
E0000E
E0000E
E0000E
E0000E
E0000E
E0000E
E0000E
E0000E
F0001E
7C003E
3E00FE
1FE7FE
0FFFFE
03FFCE
00FE0E
ENDCHAR
STARTCHAR 00FB
ENCODING 251
SWIDTH 343 0
DWIDTH 33 0
BBX 23 58 5 0
BITMAP
003C00
007C00
00FE00
00FF00
01EF00
03C780
03C380
0783C0
0701E0
0E00E0
1E00F0
000000
000000
000000
000000
E0000E
E0000E
E0000E
E0000E
E0000E
E0000E
E0000E
E0000E
E0000E
E0000E
E0000E
E0000E
E0000E
E0000E
E0000E
E0000E
E0000E
E0000E
E0000E
E0000E
E0000E
E0000E
E0000E
E0000E
E0000E
E0000E
E0000E
E0000E
E0000E
E0000E
E0000E
F0000E
F0000E
F0000E
F0000E
F0000E
F8001E
7C003E
3E00FE
1FE7FE
0FFFFE
03FFCE
00FE0E
ENDCHAR
STARTCHAR 00FC
ENCODING 252
SWIDTH 343 0
DWIDTH 33 0
BBX 23 54 5 0
BITMAP
0701C0
0701C0
0701C0
0701C0
0701C0
0701C0
000000
000000
000000
000000
000000
E0000E
E0000E
E0000E
E0000E
E0000E
E0000E
E0000E
E0000E
E0000E
E0000E
E0000E
E0000E
E0000E
E0000E
E0000E
E0000E
E0000E
E0000E
E0000E
E0000E
E0000E
E0000E
E0000E
E0000E
E0000E
E0000E
E0000E
E0000E
E0000E
E0000E
E0000E
E0000E
E0000E
E0000E
E0000E
E0000E
F0001E
7C003E
3E00FE
1FE7FE
0FFFFE
03FFCE
00FE0E
ENDCHAR
STARTCHAR 00FD
ENCODING 253
SWIDTH 343 0
DWIDTH 33 0
BBX 23 78 5 -20
BITMAP
0003C0
000780
000F00
000F00
001E00
003C00
007800
00F000
01E000
01C000
03C000
000000
000000
000000
000000
E0000E
E0000E
E0000E
E0000E
E0000E
E0000E
E0000E
E0000E
E0000E
E0000E
E0000E
E0000E
E0000E
E0000E
E0000E
E0000E
E0000E
E0000E
E0000E
E0000E
E0000E
E0000E
E0000E
E0000E
E0000E
E0000E
E0000E
E0000E
E0000E
E0000E
E0000E
E0000E
E0000E
E0000E
E0000E
E0000E
F0001E
7C003E
3E00FE
1FE7FE
0FFFFE
03FFCE
00FE0E
00000E
00000E
00000E
00000E
00000E
00000E
00000E
00000E
00000E
00000E
00000E
00000E
00000E
00001E
00003C
000078
0001F0
000FE0
000F80
000E00
ENDCHAR
STARTCHAR 00FE
ENCODING 254
SWIDTH 343 0
DWIDTH 33 0
BBX 23 82 5 -20
BITMAP
E00000
E00000
E00000
E00000
E00000
E00000
E00000
E00000
E00000
E00000
E00000
E00000
E00000
E00000
E00000
E00000
E00000
E00000
E00000
E0FE00
E3FF80
EFFFE0
FFFFF0
FF00F8
FC007C
F8001E
F0000E
E0000E
E0000E
E0000E
E0000E
E0000E
E0000E
E0000E
E0000E
E0000E
E0000E
E0000E
E0000E
E0000E
E0000E
E0000E
E0000E
E0000E
E0000E
E0000E
E0000E
E0000E
E0000E
E0000E
E0000E
E0000E
E0000E
E0000E
E0000E
F0001E
FC003C
FE00F8
FFE7F0
EFFFE0
E3FF80
E0FE00
E00000
E00000
E00000
E00000
E00000
E00000
E00000
E00000
E00000
E00000
E00000
E00000
E00000
E00000
E00000
E00000
E00000
E00000
E00000
E00000
ENDCHAR
STARTCHAR 00FF
ENCODING 255
SWIDTH 343 0
DWIDTH 33 0
BBX 23 74 5 -20
BITMAP
0701C0
0701C0
0701C0
0701C0
0701C0
0701C0
000000
000000
000000
000000
000000
E0000E
E0000E
E0000E
E0000E
E0000E
E0000E
E0000E
E0000E
E0000E
E0000E
E0000E
E0000E
E0000E
E0000E
E0000E
E0000E
E0000E
E0000E
E0000E
E0000E
E0000E
E0000E
E0000E
E0000E
E0000E
E0000E
E0000E
E0000E
E0000E
E0000E
E0000E
E0000E
E0000E
E0000E
E0000E
E0000E
F0001E
7C003E
3E00FE
1FE7FE
0FFFFE
03FFCE
00FE0E
00000E
00000E
00000E
00000E
00000E
00000E
00000E
00000E
00000E
00000E
00000E
00000E
00000E
00001E
00003C
000078
0001F0
000FE0
000F80
000E00
ENDCHAR
STARTCHAR 0101
ENCODING 257
SWIDTH 343 0
DWIDTH 33 0
BBX 0 0 0 0
BITMAP
ENDCHAR
STARTCHAR 0152
ENCODING 338
SWIDTH 552 0
DWIDTH 53 0
BBX 43 62 5 0
BITMAP
00FE000FE000
03FFC07FF800
0FFFE1FFFE00
1F81FBF83F00
3E007FC00F80
78003F8003C0
F0001F0001E0
E0000E000000
E0000E000000
E0000E000000
E0000E000000
E0000E000000
E0000E000000
E0000E000000
E0000E000000
E0000E000000
E0000E000000
E0000E000000
E0000E000000
E0000E000000
E0000E000000
E0000E000000
E0000E000000
E0000E000000
E0000E000000
E0000E000000
E0000FFFF000
E0000FFFF000
E0000FFFF000
E0000E000000
E0000E000000
E0000E000000
E0000E000000
E0000E000000
E0000E000000
E0000E000000
E0000E000000
E0000E000000
E0000E000000
E0000E000000
E0000E000000
E0000E000000
E0000E000000
E0000E000000
E0000E000000
E0000E000000
E0000E000000
E0000E000000
E0000E000000
E0000E000000
E0000E000000
E0000E000000
E0000E000000
E0000E000000
E0000E000100
F0001F0001E0
78003F8007C0
3E007BC00F80
1F81F1F03F00
0FFFE0FFFE00
03FF803FF800
00FE000FE000
ENDCHAR
STARTCHAR 0153
ENCODING 339
SWIDTH 552 0
DWIDTH 53 0
BBX 43 43 5 0
BITMAP
00FE0007E000
03FF803FF800
07FFE07FFE00
1F81F1F81F00
3E007BE00780
78003F8003C0
70001F0001E0
E0000E0000E0
E0000E0000E0
E0000E0000E0
E0000E0000E0
E0000E0000E0
E0000E0000E0
E0000E0000E0
E0000E0000E0
E0000E0000E0
E0000E0000E0
E0000E0000E0
E0000E0000E0
E0000F0000E0
E0000F8001E0
E0000FC007C0
E0000FF01F80
E0000FFFFF00
E0000EFFFE00
E0000E3FF800
E0000E0FE000
E0000E000000
E0000E000000
E0000E000000
E0000E000000
E0000E000000
E0000E000000
E0000E000000
E0000E000000
E0000E000000
F0001F0001E0
78003F8003C0
3E007BC00F80
1F81F1F83F00
0FFFE0FFFE00
03FF803FF800
00FE000FE000
ENDCHAR
STARTCHAR 0160
ENCODING 352
SWIDTH 343 0
DWIDTH 33 0
BBX 23 77 5 0
BITMAP
1E00F0
0F00E0
0701E0
0783C0
03C380
01C780
01EF00
00FE00
007E00
007C00
003C00
000000
000000
000000
000000
00FE00
03FFC0
0FFFE0
1F83F0
3E007C
78003E
F0001E
F00000
F00000
F00000
F00000
F00000
F00000
F00000
F00000
F00000
F00000
F00000
F00000
F00000
F00000
F00000
F00000
780000
3E0000
1F8000
0FFE00
03FF80
00FFE0
0003F0
000078
00003C
00001E
00000E
00000E
00000E
00000E
00000E
00000E
00000E
00000E
00000E
00000E
00000E
00000E
00000E
00000E
00000E
00000E
00000E
00000E
00000E
00000E
00000E
10000E
F8001E
7C003C
3E0078
1F81F0
0FFFE0
03FF80
00FE00
ENDCHAR
STARTCHAR 0161
ENCODING 353
SWIDTH 343 0
DWIDTH 33 0
BBX 23 58 5 0
BITMAP
1E00F0
0F00E0
0701E0
0783C0
03C380
01C780
01EF00
00FF00
00FE00
007C00
003C00
000000
000000
000000
000000
00FE00
03FF80
07FFE0
1F83F0
3E00F8
7C003C
70001E
F00018
F00000
F00000
F00000
F00000
F00000
F00000
F00000
F00000
F00000
780000
3E0000
1F8000
0FFE00
03FF80
00FFE0
0003F0
000078
00003C
00001E
00000E
00000E
00000E
00000E
00000E
00000E
00000E
00000E
10000E
F0001E
7C003C
3E0078
1F81F0
0FFFE0
03FF80
00FE00
ENDCHAR
STARTCHAR 0178
ENCODING 376
SWIDTH 343 0
DWIDTH 33 0
BBX 23 74 5 0
BITMAP
0701C0
0701C0
0701C0
0701C0
0701C0
0701C0
000000
000000
000000
000000
000000
000000
E0000E
E0000E
E0000E
E0000E
E0000E
E0000E
E0000E
E0000E
E0000E
E0000E
E0000E
E0000E
E0000E
E0000E
E0000E
E0000E
E0000E
E0000E
E0000E
E0000E
E0000E
E0000E
F0001E
78003C
3E007C
1F83F0
0FFFE0
03FFC0
00FE00
003800
003800
003800
003800
003800
003800
003800
003800
003800
003800
003800
003800
003800
003800
003800
003800
003800
003800
003800
003800
003800
003800
003800
003800
003800
003800
003800
003800
003800
003800
003800
003800
003800
ENDCHAR
STARTCHAR 0192
ENCODING 402
SWIDTH 447 0
DWIDTH 43 0
BBX 33 75 5 -13
BITMAP
0000000380
0000001F80
0000007F00
000000F800
000001E000
000003C000
0000078000
00000E0000
00000E0000
00000E0000
00000E0000
00000E0000
00001E0000
00001C0000
00001C0000
00001C0000
00001C0000
00003C0000
0000380000
0000380000
000FFFF000
000FFFF000
001FFFF000
0000700000
0000700000
0000700000
0000700000
0000700000
0000E00000
0000E00000
0000E00000
0000E00000
0000E00000
0001C00000
0001C00000
0001C00000
0001C00000
0001C00000
0003C00000
0003800000
0003800000
0003800000
0003800000
0007800000
0007000000
0007000000
0007000000
0007000000
0007000000
000E000000
000E000000
000E000000
000E000000
000E000000
001C000000
001C000000
001C000000
001C000000
001C000000
003C000000
0038000000
0038000000
0038000000
0038000000
0078000000
0070000000
0070000000
0070000000
00F0000000
01E0000000
07C0000000
1F80000000
7E00000000
FC00000000
E000000000
ENDCHAR
STARTCHAR 02C6
ENCODING 710
SWIDTH 281 0
DWIDTH 27 0
BBX 16 13 5 48
BITMAP
01C0
03E0
07E0
07F0
0F70
0E78
1E38
1C3C
3C1C
381E
780E
700F
F007
ENDCHAR
STARTCHAR 02DC
ENCODING 732
SWIDTH 333 0
DWIDTH 32 0
BBX 21 5 6 55
BITMAP
0F8020
3FF0F0
FFFFF8
F8FFE0
601F80
ENDCHAR
STARTCHAR 03BC
ENCODING 956
SWIDTH 343 0
DWIDTH 33 0
BBX 23 55 5 -12
BITMAP
E0000E
E0000E
E0000E
E0000E
E0000E
E0000E
E0000E
E0000E
E0000E
E0000E
E0000E
E0000E
E0000E
E0000E
E0000E
E0000E
E0000E
E0000E
E0000E
E0000E
E0000E
E0000E
E0000E
E0000E
E0000E
E0000E
E0000E
E0000E
E0000E
E0000E
E0000E
E0000E
E0000E
E0000E
E0000E
E0000E
F0001E
FC003C
FE00F8
FFE7F0
EFFFE0
E3FF80
E0FE00
E01E00
E00F00
E00780
E003C0
E001F0
E000FE
E0007E
E0000E
E00000
E00000
E00000
E00000
ENDCHAR
STARTCHAR 2010
ENCODING 8208
SWIDTH 416 0
DWIDTH 40 0
BBX 30 3 5 26
BITMAP
FFFFFFFC
FFFFFFFC
FFFFFFFC
ENDCHAR
STARTCHAR 2013
ENCODING 8211
SWIDTH 479 0
DWIDTH 46 0
BBX 36 3 5 26
BITMAP
FFFFFFFFF0
FFFFFFFFF0
FFFFFFFFF0
ENDCHAR
STARTCHAR 2014
ENCODING 8212
SWIDTH 552 0
DWIDTH 53 0
BBX 43 3 5 26
BITMAP
FFFFFFFFFFE0
FFFFFFFFFFE0
FFFFFFFFFFE0
ENDCHAR
STARTCHAR 2018
ENCODING 8216
SWIDTH 177 0
DWIDTH 17 0
BBX 6 13 6 50
BITMAP
E0
E0
E0
E0
70
70
70
70
38
38
38
38
1C
ENDCHAR
STARTCHAR 2019
ENCODING 8217
SWIDTH 177 0
DWIDTH 17 0
BBX 6 13 6 48
BITMAP
1C
38
38
38
38
70
70
70
70
E0
E0
E0
E0
ENDCHAR
STARTCHAR 201A
ENCODING 8218
SWIDTH 177 0
DWIDTH 17 0
BBX 6 14 6 -8
BITMAP
1C
38
38
38
38
78
70
70
70
70
E0
E0
E0
E0
ENDCHAR
STARTCHAR 201C
ENCODING 8220
SWIDTH 239 0
DWIDTH 23 0
BBX 13 13 5 49
BITMAP
E1C0
F1C0
F0E0
70E0
70E0
78E0
7870
3870
3870
3C70
3C38
1C38
1E38
ENDCHAR
STARTCHAR 201D
ENCODING 8221
SWIDTH 239 0
DWIDTH 23 0
BBX 13 13 5 49
BITMAP
1E38
1C38
3C38
3C70
3C70
3870
7870
78E0
70E0
70E0
F0E0
F1C0
E1C0
ENDCHAR
STARTCHAR 201E
ENCODING 8222
SWIDTH 270 0
DWIDTH 26 0
BBX 16 14 5 -7
BITMAP
1E07
1C07
3C07
3C07
3C0E
380E
380E
780E
781C
701C
701C
F01C
F03C
E038
ENDCHAR
STARTCHAR 2020
ENCODING 8224
SWIDTH 281 0
DWIDTH 27 0
BBX 17 63 5 -7
BITMAP
01C000
01C000
01C000
01C000
01C000
01C000
01C000
01C000
01C000
01C000
FFFF80
FFFF80
FFFF80
01C000
01C000
01C000
01C000
01C000
01C000
01C000
01C000
01C000
01C000
01C000
01C000
01C000
01C000
01C000
01C000
01C000
01C000
01C000
01C000
01C000
01C000
01C000
01C000
01C000
01C000
01C000
01C000
01C000
01C000
01C000
01C000
01C000
01C000
01C000
01C000
01C000
01C000
01C000
01C000
01C000
01C000
01C000
01C000
01C000
01C000
01C000
01C000
01C000
01C000
ENDCHAR
STARTCHAR 2021
ENCODING 8225
SWIDTH 281 0
DWIDTH 27 0
BBX 17 63 5 -7
BITMAP
01C000
01C000
01C000
01C000
01C000
01C000
01C000
01C000
01C000
01C000
FFFF80
FFFF80
FFFF80
01C000
01C000
01C000
01C000
01C000
01C000
01C000
01C000
01C000
01C000
01C000
01C000
01C000
01C000
01C000
01C000
01C000
01C000
01C000
01C000
01C000
01C000
01C000
01C000
01C000
01C000
01C000
01C000
01C000
01C000
01C000
01C000
01C000
01C000
01C000
01C000
01C000
FFFF80
FFFF80
FFFF80
01C000
01C000
01C000
01C000
01C000
01C000
01C000
01C000
01C000
01C000
ENDCHAR
STARTCHAR 2022
ENCODING 8226
SWIDTH 177 0
DWIDTH 17 0
BBX 7 11 5 24
BITMAP
FE
FE
FE
FE
FE
FE
FE
FE
FE
FE
FE
ENDCHAR
STARTCHAR 2026
ENCODING 8230
SWIDTH 437 0
DWIDTH 42 0
BBX 31 7 5 0
BITMAP
E003800E
E003800E
E003800E
E003800E
E003800E
E003800E
E003800E
ENDCHAR
STARTCHAR 2030
ENCODING 8240
SWIDTH 833 0
DWIDTH 80 0
BBX 69 62 5 -1
BITMAP
03E000007000000000
0FF800007000000000
1FFC0000F000000000
3E3C0000E000000000
3C1E0000E000000000
780F0001E000000000
F0070001C000000000
E0070001C000000000
E0070003C000000000
E00700038000000000
E00700038000000000
E00700078000000000
E00700070000000000
E00700070000000000
E007000F0000000000
E007000E0000000000
E007000E0000000000
E007000E0000000000
E007001C0000000000
E007001C0000000000
E007001C0000000000
E00700380000000000
E00700380000000000
E00700380000000000
E00700700000000000
E00700700000000000
700700700000000000
780E00E00000000000
381C00E00000000000
1E3C00E00000000000
1FF801E003F0003F00
0FF001C007FC007FC0
03C001C00FFC00FFC0
000003C01F1E01F1E0
000003803C0F03C0F0
000003807807878078
000007807803878038
000007007003870038
000007007003870038
00000F007003870038
00000E007003870038
00000E007003870038
00001E007003870038
00001C007003870038
00001C007003870038
00003C007003870038
000038007003870038
000038007003870038
000038007003870038
000070007003870038
000070007003870038
000070007003870038
0000E0007003870038
0000E0007003870038
0000E0007003870038
0001C0007803878038
0001C0003807038070
0001C0001C0F01C0F0
000380000F1E00F1E0
000380000FFC00FFC0
0003800007F8007F80
0007800001F0001F00
ENDCHAR
STARTCHAR 2039
ENCODING 8249
SWIDTH 229 0
DWIDTH 22 0
BBX 12 22 5 17
BITMAP
0010
0030
0070
01E0
03E0
07C0
0F80
1F00
7E00
FC00
FC00
FC00
FC00
7E00
3F00
0F80
07C0
03C0
01E0
00F0
0030
0010
ENDCHAR
STARTCHAR 203A
ENCODING 8250
SWIDTH 229 0
DWIDTH 22 0
BBX 12 22 5 17
BITMAP
8000
C000
E000
7000
7C00
3E00
1F00
0F80
07E0
03F0
03F0
03F0
03F0
07E0
0F80
1F00
3E00
3C00
7800
E000
C000
8000
ENDCHAR
STARTCHAR 2122
ENCODING 8482
SWIDTH 625 0
DWIDTH 60 0
BBX 50 18 5 38
BITMAP
03F0007E01F800
1FFC01FF87FE00
3FFE03FFEFFF00
7DCF87C1FF07C0
F1C78F007C01C0
01C00E003801C0
01C00E003801C0
01C00E003801C0
01C00E003801C0
01C00E003801C0
01C00E003801C0
01C00E003801C0
01C00E003801C0
01C00E003801C0
01C00E003801C0
01C00E003801C0
01C00E003801C0
01C00E003801C0
ENDCHAR
STARTCHAR 2212
ENCODING 8722
SWIDTH 416 0
DWIDTH 40 0
BBX 30 3 5 26
BITMAP
FFFFFFFC
FFFFFFFC
FFFFFFFC
ENDCHAR
STARTCHAR 2219
ENCODING 8729
SWIDTH 145 0
DWIDTH 14 0
BBX 3 7 5 26
BITMAP
E0
E0
E0
E0
E0
E0
E0
ENDCHAR
ENDFONT
